<svg xmlns="http://www.w3.org/2000/svg" xmlns:xlink="http://www.w3.org/1999/xlink" width="1920" height="2055" viewBox="0 0 1920 2055">
  <defs>
    <clipPath id="clip-path">
      <rect id="Rectángulo_760" data-name="Rectángulo 760" width="2105" height="1270" transform="translate(758.455 142)" fill="#ecd0a5" stroke="#707070" stroke-width="1"/>
    </clipPath>
    <clipPath id="clip-path-2">
      <path id="Trazado_2910" data-name="Trazado 2910" d="M0,0,211.629.383l.383,212.294L.383,212.294Z" transform="matrix(0.91, 0.415, -0.415, 0.91, 116.621, 0)" fill="#ecd0a5" stroke="#707070" stroke-width="0.584"/>
    </clipPath>
    <clipPath id="clip-path-3">
      <path id="Trazado_2912" data-name="Trazado 2912" d="M42.592,38.659,320.316,38l-.773,327.253-277.724.656Z" transform="matrix(0.649, -0.761, 0.761, 0.649, 0, 219.148)" fill="#ecd0a5" stroke="#707070" stroke-width="0.578"/>
    </clipPath>
    <clipPath id="clip-Web_1920_45">
      <rect width="1920" height="2055"/>
    </clipPath>
  </defs>
  <g id="Web_1920_45" data-name="Web 1920 – 45" clip-path="url(#clip-Web_1920_45)">
    <g id="Enmascarar_grupo_29" data-name="Enmascarar grupo 29" transform="translate(-850.455 251)" clip-path="url(#clip-path)">
      <g id="Logo1" transform="translate(806.856 407.792)">
        <path id="Trazado_2908" data-name="Trazado 2908" d="M250.62,236.732l-1.612-17.954a334.088,334.088,0,0,0,35.479-1.657q15.323-1.932,25.8-6.905A35.275,35.275,0,0,0,326.012,195.3q5.648-9.944,5.644-25.687,0-21.27-4.838-33.145T309.482,119.9q-12.5-4.972-35.076-4.972-5.238,0-10.885.276-5.647,0-12.1.552-6.047.274-13.3.829L229.252,98.9q7.257-.274,13.707-.552t12.5-.276q6.448-.274,12.095-.276,33.057,0,53.219,5.8,20.161,5.526,29.431,20.992,9.676,15.189,9.676,44.194,0,25.687-13.3,40.6t-37.9,21.268Q284.086,236.73,250.62,236.732ZM228.849,296.67q.4-11.6.806-28.45t.4-35.631q.4-19.058.4-36.184,0-17.4-.4-35.631,0-18.5-.4-34.8,0-16.3-.4-27.069l32.253,1.933q-.4,7.732-.806,17.4,0,9.389-.4,19.611t-.806,20.439q0,10.218-.4,19.887v54.689q.4,10.772.4,22.1.4,11.046.4,21.544.4,10.218.807,19.058ZM443.5,298.327q-22.981,0-35.882-8.839a49.943,49.943,0,0,1-18.142-24.03,94.93,94.93,0,0,1-5.644-22.925q-1.209-12.7-1.21-26.792,0-9.943.806-19.335a70.555,70.555,0,0,1,4.435-17.677,55.1,55.1,0,0,1,19.755-27.345q14.114-10.772,40.317-10.772,17.742,0,28.624,5.524a35.016,35.016,0,0,1,16.53,16.02q5.238,10.5,5.241,25.411a102.1,102.1,0,0,1-1.613,17.125q-1.209,9.115-3.225,18.23l-23.384-14.087q1.21-6.9,2.016-13.258a102.941,102.941,0,0,0,.806-12.43,37.424,37.424,0,0,0-2.419-14.363,18.159,18.159,0,0,0-8.467-9.391q-5.647-3.589-16.53-3.591-14.914,0-22.578,8.839-7.657,8.56-10.885,22.373a99.967,99.967,0,0,0-2.419,14.087q-.4,7.458-.4,14.915v15.468q.4,7.457,1.21,14.363a85,85,0,0,0,2.419,12.43,39.46,39.46,0,0,0,10.482,17.954q7.657,6.629,21.771,6.629,10.885,0,17.336-3.59a20.827,20.827,0,0,0,9.676-9.667,32.457,32.457,0,0,0,2.822-13.81,38.549,38.549,0,0,0-.4-5.524,22.553,22.553,0,0,0-.807-5.8h23.787a27.835,27.835,0,0,1,.806,6.629,46.48,46.48,0,0,1,.4,6.077,38.911,38.911,0,0,1-6.047,21.544q-5.648,9.115-18.142,14.363Q462.451,298.325,443.5,298.327Zm-49.993-73.472-.4-16.3,100.389-.552v14.915h-6.451q-6.048,0-16.53.276-10.076.274-23.384.552-12.9,0-27.012.276Q406.414,224.3,393.509,224.855ZM593.04,297.774q-15.723,0-25.4-3.315t-15.32-9.115a33.923,33.923,0,0,1-7.257-13.81,65.414,65.414,0,0,1-2.015-16.573V242.809q.4-6.629.4-14.363.4-7.732.806-16.02.4-8.841.806-18.23.4-9.669.807-19.059t.4-18.506q.4-9.389.806-18.23t.4-16.573l31.044-2.21q-1.21,7.458-2.42,18.506-.809,10.772-2.015,23.754-.81,12.984-2.016,26.516-.809,13.258-1.613,25.688-.809,11.6-1.209,21.268-.41,9.389-.4,15.468a80.42,80.42,0,0,0,1.613,17.4,19.848,19.848,0,0,0,7.257,11.048q5.238,3.588,15.32,3.59,14.1,0,20.158-4.419a19.856,19.856,0,0,0,8.063-12.153,66.853,66.853,0,0,0,2.016-16.849,38.509,38.509,0,0,0-.4-5.524,46.619,46.619,0,0,0-.4-6.077q-.41-3.04-.807-6.077l24.19-3.867q.8,5.8,1.209,11.325a75.185,75.185,0,0,1,.806,10.772q0,14.361-5.644,25.135-5.648,10.5-17.74,16.573T593.04,297.774ZM522.485,159.393l2.42-16.02h6.048q7.256,0,17.336.276h45.155q9.267-.274,18.949-.276,9.676-.274,18.546-.276,9.266-.274,16.53-.276l-2.419,14.087q-4.438,0-10.079.276H622.875q-6.048,0-12.9.276-6.457,0-12.9.276H584.977q-9.275,0-20.965.552-11.695.274-22.577.553T522.485,159.393ZM823.25,297.774q-19.352,0-32.253-4.7-12.494-4.7-18.949-12.982A31.484,31.484,0,0,1,766,261.039a64.858,64.858,0,0,1,.4-7.182,72.108,72.108,0,0,1,2.016-7.181h24.19q-.4,2.76-.806,5.524a33,33,0,0,0-.4,5.248,31.962,31.962,0,0,0,2.419,12.43,21.223,21.223,0,0,0,9.676,9.391q7.257,3.588,20.158,3.59,10.886,0,17.739-3.038a20.84,20.84,0,0,0,13.3-19.887q0-6.355-6.854-11.325a88.167,88.167,0,0,0-16.53-9.667q-10.075-4.972-20.965-10.5-8.056-3.869-16.127-8.01a96.541,96.541,0,0,1-14.514-9.667,41,41,0,0,1-10.079-12.706,35.637,35.637,0,0,1-3.629-16.3q0-14.087,8.063-23.754a49.879,49.879,0,0,1,21.368-14.639A82.3,82.3,0,0,1,824.46,138.4q20.971,0,32.657,6.077,12.1,5.8,17.336,16.573,5.247,10.5,5.241,24.582a63.3,63.3,0,0,1-.4,7.182,31.36,31.36,0,0,1-.806,6.905q-.4,3.315-1.209,7.458H849.859q1.21-6.074,2.016-11.048a65.323,65.323,0,0,0,.806-10.5q0-12.984-6.048-22.1-5.637-9.115-22.174-9.115a44.747,44.747,0,0,0-17.336,3.038,25.223,25.223,0,0,0-11.289,8.839q-3.628,5.8-3.629,14.363a23.725,23.725,0,0,0,4.435,14.363,55.325,55.325,0,0,0,12.5,10.772q8.066,4.7,16.933,9.391,8.876,4.417,18.142,8.839a134.774,134.774,0,0,1,17.74,9.115,41.975,41.975,0,0,1,13.3,11.048,23.089,23.089,0,0,1,5.241,15.192,29.6,29.6,0,0,1-7.66,20.44q-7.657,8.56-20.562,13.258A84.377,84.377,0,0,1,823.25,297.774Zm95.768-.276v-6.077q.41-6.355.4-16.849.409-10.5.4-23.2v-26.24q.409-13.532.4-25.688t-.4-25.135q0-12.984-.4-25.411,0-12.43-.4-22.1V104.98l29.028-4.143s-.129,2.669-.4,8.01q0,7.732-.4,20.439t-1.209,27.9q-.4,15.189-.806,30.107v26.792q0,14.915.4,30.107.41,14.915.807,27.621t.806,20.44c.273,5.155.4,7.734.4,7.734Zm116.516.829-30.641,3.038q.409-4.7.806-13.811.809-9.389,1.21-21.268.808-12.155,1.209-25.411t.4-26.24V181.214q0-10.5-2.822-16.02a15.688,15.688,0,0,0-8.063-8.01,27.984,27.984,0,0,0-11.693-2.21,39.622,39.622,0,0,0-18.949,5.248q-9.267,4.972-15.723,17.954-6.048,12.7-6.047,35.907L929.9,227.065q0-11.046,1.21-23.2a118.71,118.71,0,0,1,4.838-23.754,67.941,67.941,0,0,1,10.483-20.716,49.08,49.08,0,0,1,17.739-14.915q11.3-5.526,27.416-5.524,12.5,0,21.771,3.867a29.544,29.544,0,0,1,14.514,12.982q5.648,8.841,5.644,24.03v61.319q.41,12.984.806,24.03t.4,19.611Q1035.136,293.079,1035.534,298.327Zm102.478-.552q-23.38,0-36.687-9.667a52.494,52.494,0,0,1-18.143-26.516,149.54,149.54,0,0,1-4.434-21.268,245.45,245.45,0,0,1-1.21-24.859,138.545,138.545,0,0,1,.806-15.468q.81-7.458,2.016-14.087a68.486,68.486,0,0,1,4.435-12.706A51.838,51.838,0,0,1,1105.76,148.9q14.113-8.841,37.494-8.839,22.581,0,35.076,9.944,12.5,9.669,18.143,26.24a72.59,72.59,0,0,1,4.838,19.335,190.7,190.7,0,0,1,1.209,21.82,243.328,243.328,0,0,1-1.209,25.135,94.48,94.48,0,0,1-4.435,20.716,57.842,57.842,0,0,1-11.289,18.782,46.926,46.926,0,0,1-18.948,11.877Q1154.943,297.777,1138.012,297.774Zm2.823-16.3q14.514,0,21.771-6.353a33.687,33.687,0,0,0,10.482-17.677,44.336,44.336,0,0,0,2.016-10.5,80.051,80.051,0,0,0,.806-11.6q.4-6.075.4-12.706,0-11.046-.806-21.544a98.419,98.419,0,0,0-3.226-19.335q-3.228-11.6-10.482-18.506-7.257-7.184-20.965-7.181a35.864,35.864,0,0,0-14.917,2.762,26.271,26.271,0,0,0-10.079,8.01,48.361,48.361,0,0,0-6.854,11.6,79.979,79.979,0,0,0-3.225,12.982,120.489,120.489,0,0,0-1.613,14.363q-.4,7.458-.4,14.915v12.982q.4,6.355,1.209,12.153a64.305,64.305,0,0,0,2.419,10.5,40.615,40.615,0,0,0,11.289,18.23Q1126.318,281.476,1140.835,281.478ZM1246.2,335.339s.136-2.116.4-6.353.54-9.85.807-16.849.54-14.822.807-23.478q.809-12.984,1.209-26.516t.4-25.411q0-12.7-.4-26.792,0-14.361-.4-27.9,0-13.532-.806-23.754-.4-10.5-1.613-15.191l29.028-.553v19.887a62.926,62.926,0,0,1,9.273-9.944,47.515,47.515,0,0,1,14.918-8.01,58.6,58.6,0,0,1,20.562-3.315q18.551,0,28.625,7.181a45.337,45.337,0,0,1,15.32,19.058,79.715,79.715,0,0,1,5.645,24.03q1.21,13.532,1.21,27.9a130.6,130.6,0,0,1-.807,14.639,120.341,120.341,0,0,1-1.613,14.087,73.466,73.466,0,0,1-3.629,12.982,58.551,58.551,0,0,1-17.74,27.345q-12.094,10.5-34.672,10.5a58.267,58.267,0,0,1-16.933-2.21,39.079,39.079,0,0,1-12.1-5.248,44.939,44.939,0,0,1-8.063-6.905l.806,50.546Zm29.028-99.159a81.689,81.689,0,0,0,3.225,23.478,38.856,38.856,0,0,0,11.289,17.4q8.067,6.355,20.965,6.353,13.3,0,20.158-7.458a45.68,45.68,0,0,0,10.08-18.782,96.428,96.428,0,0,0,3.225-18.506q.81-9.944.806-20.44V197.786a85.253,85.253,0,0,0-1.613-17.4q-2.009-11.046-7.66-17.4t-19.353-6.353q-13.7,0-22.577,7.182a43.7,43.7,0,0,0-13.3,18.782,72.494,72.494,0,0,0-4.838,24.306Z" transform="translate(196.676 46.828)" fill="#ecd0a5" stroke="#707070" stroke-width="0.584"/>
        <g id="Grupo_3208" data-name="Grupo 3208" transform="translate(1593.327 70.509)" clip-path="url(#clip-path-2)">
          <path id="Trazado_2909" data-name="Trazado 2909" d="M418.436,149.429A19.144,19.144,0,0,1,408.025,138.3a19.406,19.406,0,0,1,.639-15.277,19.882,19.882,0,0,1,36.687,1.309,19.4,19.4,0,0,1-.639,15.272,19.572,19.572,0,0,1-26.275,9.825Zm52.61-17.253a19.122,19.122,0,0,1-10.412-11.129,19.4,19.4,0,0,1,.638-15.272,19.881,19.881,0,0,1,36.688,1.3,19.393,19.393,0,0,1-.638,15.276,19.575,19.575,0,0,1-26.276,9.82Zm50.106,22.951A19.122,19.122,0,0,1,510.741,144a19.381,19.381,0,0,1,.639-15.272,19.884,19.884,0,0,1,36.688,1.3,19.431,19.431,0,0,1-.639,15.277,19.575,19.575,0,0,1-26.275,9.82ZM542.7,206.345a19.119,19.119,0,0,1-10.408-11.125,19.408,19.408,0,0,1,.635-15.276,19.882,19.882,0,0,1,36.687,1.3,19.409,19.409,0,0,1-.634,15.277,19.572,19.572,0,0,1-26.28,9.82ZM400.243,240.82a19.184,19.184,0,0,1-10.949-12.684,24.631,24.631,0,0,1,1.4-17.478A25.923,25.923,0,0,1,402.607,198a176.215,176.215,0,0,1,16.634-7.585,108.063,108.063,0,0,0,12.467-5.6q6.046-3.187,11.829-6.863A130.659,130.659,0,0,1,464.056,167.4a25.565,25.565,0,0,1,21.108.425,26.112,26.112,0,0,1,14.265,15.778,121.634,121.634,0,0,1,5.544,22.73q1.034,6.795,2.546,13.326a106.042,106.042,0,0,0,3.916,12.982,178.173,178.173,0,0,1,5.21,17.592,26.069,26.069,0,0,1-1.7,17.342A24.456,24.456,0,0,1,502.735,280.1a19.035,19.035,0,0,1-16.709.017A140.426,140.426,0,0,1,465.4,268.475a140.744,140.744,0,0,0-42.887-19.645A140.007,140.007,0,0,1,400.243,240.82Z" transform="translate(-311.171 -38.176)" fill="#ecd0a5" stroke="#707070" stroke-width="0.584"/>
        </g>
        <g id="Grupo_3209" data-name="Grupo 3209" transform="translate(0 0)" clip-path="url(#clip-path-3)">
          <path id="Trazado_2911" data-name="Trazado 2911" d="M188.974,299.065q-7.079,9.886-17.542,10.708T152.87,301.95q-8.107-8.643-8.775-21.408a34.592,34.592,0,0,1,6.411-22.649q7.079-9.886,17.542-10.709t18.562,7.823a32.751,32.751,0,0,1,8.775,21.408A34.615,34.615,0,0,1,188.974,299.065Zm-1.764-87.125q-7.086,9.886-17.547,10.7T151.1,214.821a32.762,32.762,0,0,1-8.775-21.4,34.608,34.608,0,0,1,6.411-22.649q7.086-9.892,17.542-10.708t18.566,7.823a32.763,32.763,0,0,1,8.775,21.4A34.626,34.626,0,0,1,187.211,211.94Zm46.778-65.287q-7.079,9.886-17.543,10.708t-18.561-7.823a32.761,32.761,0,0,1-8.776-21.408,34.585,34.585,0,0,1,6.411-22.649q7.08-9.886,17.542-10.708t18.562,7.823A32.74,32.74,0,0,1,240.4,124,34.619,34.619,0,0,1,233.989,146.653Zm71-9.5q-7.086,9.886-17.542,10.708t-18.566-7.823a32.781,32.781,0,0,1-8.775-21.408,34.639,34.639,0,0,1,6.411-22.649Q273.6,86.1,284.065,85.275T302.627,93.1a32.763,32.763,0,0,1,8.775,21.4A34.62,34.62,0,0,1,304.991,137.155ZM294.714,367.574q-7.86,10.97-19.657,10.819t-20.993-9.952a43.46,43.46,0,0,1-11.173-23.669q-2.182-14.08-3.176-28.5a207.841,207.841,0,0,0-2.279-21.323q-1.694-10.555-4.073-20.932a247.7,247.7,0,0,1-5.388-35.695q-1.4-18.083,8.336-31.658T261,192.223a127.829,127.829,0,0,1,30.018,1.844q8.748,1.5,17.344,2.146a111.034,111.034,0,0,0,17.424-.072,186.423,186.423,0,0,1,23.573.038q11.729.758,20.718,10.347a41.321,41.321,0,0,1,10.886,24.056q1.694,14.252-6.162,25.22a204.412,204.412,0,0,1-21.949,25.887,204.421,204.421,0,0,0-21.949,25.887,224.793,224.793,0,0,0-18.1,30A224.827,224.827,0,0,1,294.714,367.574Z" transform="translate(1.521 -23.167)" fill="#ecd0a5" stroke="#707070" stroke-width="0.584"/>
        </g>
      </g>
    </g>
  </g>
</svg>
