<svg width="360" height="640" viewBox="0 0 360 640" fill="none" xmlns="http://www.w3.org/2000/svg">
<g clip-path="url(#clip0_75_219)">
<rect width="360" height="640" fill="white"/>
<g filter="url(#filter0_i_75_219)">
<rect x="-41.2982" y="189.659" width="378" height="244.082" rx="50" transform="rotate(-14.5231 -41.2982 189.659)" fill="#0CE0E8"/>
</g>
<path d="M58 59L327 59" stroke="black" stroke-width="3" stroke-linecap="round"/>
<g filter="url(#filter1_d_75_219)">
<rect x="64" y="199" width="231" height="40" rx="5" fill="white"/>
</g>
<g filter="url(#filter2_d_75_219)">
<rect x="66" y="301" width="231" height="40" rx="5" fill="white"/>
</g>
<g filter="url(#filter3_d_75_219)">
<rect x="91" y="425" width="178" height="34" rx="5" fill="#00B3FF"/>
<rect x="91.5" y="425.5" width="177" height="33" rx="4.5" stroke="#00B3FF"/>
</g>
<path d="M153.642 436.091V447H152.321V436.091H153.642ZM157.377 442.078V447H156.12V438.818H157.335V440.097H157.441C157.633 439.681 157.924 439.347 158.315 439.095C158.706 438.839 159.21 438.712 159.828 438.712C160.382 438.712 160.866 438.825 161.282 439.053C161.697 439.276 162.021 439.617 162.251 440.075C162.482 440.53 162.598 441.105 162.598 441.801V447H161.34V441.886C161.34 441.244 161.174 440.743 160.84 440.384C160.506 440.022 160.048 439.841 159.465 439.841C159.064 439.841 158.706 439.928 158.389 440.102C158.077 440.276 157.83 440.53 157.649 440.864C157.468 441.197 157.377 441.602 157.377 442.078ZM168.197 450.239C167.59 450.239 167.068 450.161 166.631 450.004C166.194 449.852 165.83 449.649 165.539 449.397C165.252 449.148 165.023 448.882 164.852 448.598L165.854 447.895C165.967 448.044 166.111 448.214 166.285 448.406C166.459 448.602 166.697 448.77 166.999 448.912C167.304 449.058 167.704 449.131 168.197 449.131C168.858 449.131 169.403 448.971 169.833 448.651C170.262 448.332 170.477 447.831 170.477 447.149V445.487H170.371C170.278 445.636 170.147 445.821 169.976 446.041C169.809 446.258 169.568 446.451 169.252 446.622C168.939 446.789 168.517 446.872 167.984 446.872C167.324 446.872 166.731 446.716 166.205 446.403C165.683 446.091 165.269 445.636 164.964 445.04C164.662 444.443 164.511 443.719 164.511 442.866C164.511 442.028 164.659 441.299 164.953 440.677C165.248 440.052 165.658 439.569 166.184 439.228C166.709 438.884 167.317 438.712 168.006 438.712C168.538 438.712 168.961 438.8 169.273 438.978C169.589 439.152 169.831 439.351 169.998 439.575C170.168 439.795 170.3 439.976 170.392 440.118H170.52V438.818H171.734V447.234C171.734 447.938 171.574 448.509 171.255 448.95C170.939 449.393 170.513 449.718 169.976 449.924C169.444 450.134 168.851 450.239 168.197 450.239ZM168.155 445.743C168.659 445.743 169.085 445.627 169.433 445.397C169.781 445.166 170.046 444.834 170.227 444.401C170.408 443.967 170.498 443.449 170.498 442.845C170.498 442.256 170.41 441.735 170.232 441.284C170.055 440.833 169.792 440.48 169.444 440.224C169.096 439.969 168.666 439.841 168.155 439.841C167.622 439.841 167.178 439.976 166.823 440.246C166.471 440.516 166.207 440.878 166.029 441.332C165.855 441.787 165.768 442.291 165.768 442.845C165.768 443.413 165.857 443.916 166.035 444.353C166.216 444.786 166.482 445.127 166.834 445.375C167.189 445.62 167.629 445.743 168.155 445.743ZM174.035 447V438.818H175.25V440.054H175.335C175.484 439.649 175.754 439.321 176.145 439.069C176.535 438.816 176.976 438.69 177.466 438.69C177.558 438.69 177.673 438.692 177.812 438.696C177.95 438.699 178.055 438.705 178.126 438.712V439.99C178.084 439.979 177.986 439.963 177.833 439.942C177.684 439.917 177.526 439.905 177.359 439.905C176.961 439.905 176.606 439.988 176.294 440.155C175.985 440.319 175.74 440.546 175.559 440.837C175.381 441.125 175.292 441.453 175.292 441.822V447H174.035ZM182.798 447.17C182.009 447.17 181.329 446.996 180.758 446.648C180.189 446.297 179.751 445.807 179.442 445.178C179.137 444.546 178.984 443.811 178.984 442.973C178.984 442.135 179.137 441.396 179.442 440.757C179.751 440.114 180.181 439.614 180.731 439.255C181.285 438.893 181.931 438.712 182.67 438.712C183.096 438.712 183.517 438.783 183.932 438.925C184.348 439.067 184.726 439.298 185.067 439.617C185.408 439.933 185.68 440.352 185.882 440.874C186.084 441.396 186.186 442.039 186.186 442.803V443.335H179.879V442.249H184.907C184.907 441.787 184.815 441.375 184.63 441.013C184.449 440.651 184.19 440.365 183.852 440.155C183.519 439.946 183.124 439.841 182.67 439.841C182.169 439.841 181.736 439.965 181.37 440.214C181.008 440.459 180.729 440.778 180.534 441.173C180.339 441.567 180.241 441.989 180.241 442.44V443.165C180.241 443.783 180.347 444.306 180.561 444.736C180.777 445.162 181.077 445.487 181.461 445.711C181.844 445.931 182.29 446.041 182.798 446.041C183.128 446.041 183.426 445.995 183.693 445.903C183.963 445.807 184.195 445.665 184.39 445.477C184.586 445.285 184.737 445.047 184.843 444.763L186.058 445.104C185.93 445.516 185.715 445.878 185.413 446.19C185.111 446.499 184.738 446.741 184.295 446.915C183.851 447.085 183.352 447.17 182.798 447.17ZM193.893 440.651L192.764 440.97C192.693 440.782 192.588 440.599 192.45 440.422C192.315 440.24 192.13 440.091 191.896 439.974C191.661 439.857 191.361 439.798 190.996 439.798C190.495 439.798 190.078 439.914 189.744 440.145C189.414 440.372 189.248 440.661 189.248 441.013C189.248 441.325 189.362 441.572 189.589 441.753C189.817 441.934 190.172 442.085 190.655 442.206L191.869 442.504C192.601 442.682 193.146 442.953 193.504 443.319C193.863 443.681 194.042 444.148 194.042 444.72C194.042 445.189 193.907 445.608 193.638 445.977C193.371 446.347 192.998 446.638 192.519 446.851C192.04 447.064 191.482 447.17 190.846 447.17C190.012 447.17 189.321 446.989 188.774 446.627C188.227 446.265 187.881 445.736 187.736 445.04L188.929 444.741C189.042 445.182 189.257 445.512 189.573 445.732C189.893 445.952 190.31 446.062 190.825 446.062C191.411 446.062 191.876 445.938 192.221 445.69C192.569 445.437 192.743 445.136 192.743 444.784C192.743 444.5 192.643 444.262 192.444 444.07C192.246 443.875 191.94 443.729 191.528 443.634L190.165 443.314C189.415 443.136 188.865 442.861 188.513 442.488C188.165 442.112 187.991 441.641 187.991 441.077C187.991 440.615 188.121 440.207 188.38 439.852C188.643 439.496 189 439.218 189.451 439.015C189.905 438.813 190.42 438.712 190.996 438.712C191.805 438.712 192.441 438.889 192.903 439.244C193.368 439.599 193.698 440.068 193.893 440.651ZM198.342 447.192C197.824 447.192 197.353 447.094 196.931 446.899C196.508 446.7 196.173 446.414 195.924 446.041C195.676 445.665 195.551 445.21 195.551 444.678C195.551 444.209 195.644 443.829 195.828 443.538C196.013 443.243 196.26 443.012 196.569 442.845C196.878 442.678 197.218 442.554 197.591 442.472C197.968 442.387 198.346 442.32 198.726 442.27C199.223 442.206 199.626 442.158 199.935 442.126C200.248 442.091 200.475 442.032 200.617 441.95C200.763 441.869 200.835 441.727 200.835 441.524V441.482C200.835 440.956 200.691 440.548 200.404 440.256C200.12 439.965 199.688 439.82 199.109 439.82C198.509 439.82 198.039 439.951 197.698 440.214C197.357 440.477 197.117 440.757 196.979 441.055L195.786 440.629C195.999 440.132 196.283 439.745 196.638 439.468C196.997 439.187 197.387 438.992 197.81 438.882C198.236 438.768 198.655 438.712 199.067 438.712C199.33 438.712 199.631 438.744 199.972 438.808C200.317 438.868 200.649 438.994 200.968 439.186C201.292 439.377 201.56 439.667 201.773 440.054C201.986 440.441 202.092 440.96 202.092 441.609V447H200.835V445.892H200.771C200.686 446.07 200.544 446.26 200.345 446.462C200.146 446.664 199.882 446.837 199.552 446.979C199.221 447.121 198.818 447.192 198.342 447.192ZM198.534 446.062C199.031 446.062 199.45 445.965 199.791 445.77C200.136 445.574 200.395 445.322 200.569 445.013C200.747 444.704 200.835 444.379 200.835 444.038V442.888C200.782 442.952 200.665 443.01 200.484 443.064C200.306 443.113 200.1 443.158 199.866 443.197C199.635 443.232 199.41 443.264 199.189 443.293C198.973 443.317 198.797 443.339 198.662 443.357C198.335 443.399 198.03 443.468 197.746 443.564C197.465 443.657 197.238 443.797 197.064 443.985C196.894 444.17 196.808 444.422 196.808 444.741C196.808 445.178 196.97 445.509 197.293 445.732C197.62 445.952 198.033 446.062 198.534 446.062ZM204.387 447V438.818H205.601V440.054H205.687C205.836 439.649 206.106 439.321 206.496 439.069C206.887 438.816 207.327 438.69 207.817 438.69C207.91 438.69 208.025 438.692 208.164 438.696C208.302 438.699 208.407 438.705 208.478 438.712V439.99C208.435 439.979 208.338 439.963 208.185 439.942C208.036 439.917 207.878 439.905 207.711 439.905C207.313 439.905 206.958 439.988 206.645 440.155C206.336 440.319 206.091 440.546 205.91 440.837C205.733 441.125 205.644 441.453 205.644 441.822V447H204.387Z" fill="black"/>
<path d="M73.9716 182.091V193H72.6932L66.7486 184.435H66.642V193H65.321V182.091H66.5994L72.5653 190.678H72.6719V182.091H73.9716ZM79.7684 193.17C79.0297 193.17 78.3817 192.995 77.8241 192.643C77.2702 192.292 76.8369 191.8 76.5244 191.168C76.2155 190.536 76.061 189.797 76.061 188.952C76.061 188.099 76.2155 187.355 76.5244 186.72C76.8369 186.084 77.2702 185.591 77.8241 185.239C78.3817 184.887 79.0297 184.712 79.7684 184.712C80.507 184.712 81.1533 184.887 81.7073 185.239C82.2648 185.591 82.6981 186.084 83.007 186.72C83.3195 187.355 83.4758 188.099 83.4758 188.952C83.4758 189.797 83.3195 190.536 83.007 191.168C82.6981 191.8 82.2648 192.292 81.7073 192.643C81.1533 192.995 80.507 193.17 79.7684 193.17ZM79.7684 192.041C80.3295 192.041 80.7911 191.897 81.1533 191.61C81.5155 191.322 81.7836 190.944 81.9577 190.475C82.1317 190.006 82.2187 189.499 82.2187 188.952C82.2187 188.405 82.1317 187.895 81.9577 187.423C81.7836 186.951 81.5155 186.569 81.1533 186.278C80.7911 185.987 80.3295 185.841 79.7684 185.841C79.2073 185.841 78.7456 185.987 78.3834 186.278C78.0212 186.569 77.7531 186.951 77.5791 187.423C77.4051 187.895 77.3181 188.405 77.3181 188.952C77.3181 189.499 77.4051 190.006 77.5791 190.475C77.7531 190.944 78.0212 191.322 78.3834 191.61C78.7456 191.897 79.2073 192.041 79.7684 192.041ZM85.3947 193V184.818H86.6092V186.097H86.7157C86.8862 185.66 87.1614 185.321 87.5414 185.079C87.9213 184.834 88.3777 184.712 88.9103 184.712C89.4501 184.712 89.8993 184.834 90.258 185.079C90.6202 185.321 90.9025 185.66 91.1049 186.097H91.1902C91.3997 185.674 91.714 185.338 92.133 185.09C92.552 184.838 93.0545 184.712 93.6404 184.712C94.372 184.712 94.9703 184.941 95.4355 185.399C95.9007 185.853 96.1333 186.562 96.1333 187.524V193H94.8762V187.524C94.8762 186.92 94.7111 186.489 94.3809 186.23C94.0506 185.971 93.6618 185.841 93.2143 185.841C92.639 185.841 92.1934 186.015 91.8773 186.363C91.5613 186.707 91.4032 187.144 91.4032 187.673V193H90.1248V187.396C90.1248 186.931 89.9739 186.556 89.6721 186.272C89.3702 185.985 88.9814 185.841 88.5055 185.841C88.1788 185.841 87.8734 185.928 87.5893 186.102C87.3088 186.276 87.0815 186.517 86.9075 186.826C86.737 187.132 86.6518 187.485 86.6518 187.886V193H85.3947ZM98.6023 193V182.091H99.8594V186.118H99.9659C100.058 185.976 100.186 185.795 100.349 185.575C100.516 185.351 100.754 185.152 101.063 184.978C101.376 184.8 101.798 184.712 102.331 184.712C103.02 184.712 103.627 184.884 104.153 185.228C104.678 185.573 105.088 186.061 105.383 186.693C105.678 187.325 105.825 188.071 105.825 188.93C105.825 189.797 105.678 190.548 105.383 191.184C105.088 191.816 104.68 192.306 104.158 192.654C103.636 192.998 103.034 193.17 102.352 193.17C101.827 193.17 101.406 193.083 101.09 192.909C100.774 192.732 100.531 192.531 100.36 192.308C100.19 192.08 100.058 191.892 99.9659 191.743H99.8168V193H98.6023ZM99.8381 188.909C99.8381 189.527 99.9286 190.072 100.11 190.544C100.291 191.013 100.555 191.381 100.903 191.647C101.251 191.91 101.678 192.041 102.182 192.041C102.707 192.041 103.146 191.903 103.498 191.626C103.853 191.345 104.119 190.969 104.297 190.496C104.478 190.021 104.568 189.491 104.568 188.909C104.568 188.334 104.479 187.815 104.302 187.354C104.128 186.888 103.863 186.521 103.508 186.251C103.157 185.978 102.714 185.841 102.182 185.841C101.67 185.841 101.241 185.971 100.893 186.23C100.545 186.485 100.282 186.844 100.104 187.306C99.9268 187.764 99.8381 188.298 99.8381 188.909ZM107.748 193V184.818H108.963V186.054H109.048C109.197 185.649 109.467 185.321 109.858 185.069C110.248 184.816 110.689 184.69 111.179 184.69C111.271 184.69 111.386 184.692 111.525 184.696C111.663 184.699 111.768 184.705 111.839 184.712V185.99C111.797 185.979 111.699 185.963 111.546 185.942C111.397 185.917 111.239 185.905 111.072 185.905C110.674 185.905 110.319 185.988 110.007 186.155C109.698 186.319 109.453 186.546 109.272 186.837C109.094 187.125 109.005 187.453 109.005 187.822V193H107.748ZM116.511 193.17C115.722 193.17 115.042 192.996 114.471 192.648C113.902 192.297 113.464 191.807 113.155 191.178C112.849 190.546 112.697 189.811 112.697 188.973C112.697 188.135 112.849 187.396 113.155 186.757C113.464 186.114 113.893 185.614 114.444 185.255C114.998 184.893 115.644 184.712 116.383 184.712C116.809 184.712 117.23 184.783 117.645 184.925C118.061 185.067 118.439 185.298 118.78 185.617C119.121 185.933 119.392 186.352 119.595 186.874C119.797 187.396 119.898 188.039 119.898 188.803V189.335H113.592V188.249H118.62C118.62 187.787 118.528 187.375 118.343 187.013C118.162 186.651 117.903 186.365 117.565 186.155C117.232 185.946 116.837 185.841 116.383 185.841C115.882 185.841 115.449 185.965 115.083 186.214C114.721 186.459 114.442 186.778 114.247 187.173C114.051 187.567 113.954 187.989 113.954 188.44V189.165C113.954 189.783 114.06 190.306 114.273 190.736C114.49 191.162 114.79 191.487 115.174 191.711C115.557 191.931 116.003 192.041 116.511 192.041C116.841 192.041 117.139 191.995 117.406 191.903C117.675 191.807 117.908 191.665 118.103 191.477C118.299 191.285 118.45 191.047 118.556 190.763L119.771 191.104C119.643 191.516 119.428 191.878 119.126 192.19C118.824 192.499 118.451 192.741 118.007 192.915C117.564 193.085 117.065 193.17 116.511 193.17ZM129.119 193.17C128.437 193.17 127.835 192.998 127.313 192.654C126.791 192.306 126.383 191.816 126.088 191.184C125.793 190.548 125.646 189.797 125.646 188.93C125.646 188.071 125.793 187.325 126.088 186.693C126.383 186.061 126.793 185.573 127.319 185.228C127.844 184.884 128.451 184.712 129.14 184.712C129.673 184.712 130.094 184.8 130.403 184.978C130.715 185.152 130.953 185.351 131.116 185.575C131.283 185.795 131.413 185.976 131.505 186.118H131.612V182.091H132.869V193H131.654V191.743H131.505C131.413 191.892 131.282 192.08 131.111 192.308C130.941 192.531 130.697 192.732 130.381 192.909C130.065 193.083 129.645 193.17 129.119 193.17ZM129.289 192.041C129.794 192.041 130.22 191.91 130.568 191.647C130.916 191.381 131.18 191.013 131.362 190.544C131.543 190.072 131.633 189.527 131.633 188.909C131.633 188.298 131.544 187.764 131.367 187.306C131.189 186.844 130.926 186.485 130.578 186.23C130.23 185.971 129.801 185.841 129.289 185.841C128.757 185.841 128.313 185.978 127.958 186.251C127.606 186.521 127.342 186.888 127.164 187.354C126.99 187.815 126.903 188.334 126.903 188.909C126.903 189.491 126.992 190.021 127.169 190.496C127.35 190.969 127.617 191.345 127.968 191.626C128.324 191.903 128.764 192.041 129.289 192.041ZM138.776 193.17C137.988 193.17 137.308 192.996 136.736 192.648C136.168 192.297 135.729 191.807 135.42 191.178C135.115 190.546 134.962 189.811 134.962 188.973C134.962 188.135 135.115 187.396 135.42 186.757C135.729 186.114 136.159 185.614 136.71 185.255C137.263 184.893 137.91 184.712 138.648 184.712C139.075 184.712 139.495 184.783 139.911 184.925C140.326 185.067 140.705 185.298 141.045 185.617C141.386 185.933 141.658 186.352 141.86 186.874C142.063 187.396 142.164 188.039 142.164 188.803V189.335H135.857V188.249H140.886C140.886 187.787 140.793 187.375 140.609 187.013C140.428 186.651 140.168 186.365 139.831 186.155C139.497 185.946 139.103 185.841 138.648 185.841C138.148 185.841 137.714 185.965 137.349 186.214C136.987 186.459 136.708 186.778 136.512 187.173C136.317 187.567 136.219 187.989 136.219 188.44V189.165C136.219 189.783 136.326 190.306 136.539 190.736C136.756 191.162 137.056 191.487 137.439 191.711C137.823 191.931 138.268 192.041 138.776 192.041C139.107 192.041 139.405 191.995 139.671 191.903C139.941 191.807 140.174 191.665 140.369 191.477C140.564 191.285 140.715 191.047 140.822 190.763L142.036 191.104C141.908 191.516 141.694 191.878 141.392 192.19C141.09 192.499 140.717 192.741 140.273 192.915C139.829 193.085 139.33 193.17 138.776 193.17ZM153.451 189.655V184.818H154.708V193H153.451V191.615H153.366C153.174 192.031 152.876 192.384 152.471 192.675C152.066 192.963 151.555 193.107 150.937 193.107C150.426 193.107 149.971 192.995 149.574 192.771C149.176 192.544 148.863 192.203 148.636 191.748C148.409 191.29 148.295 190.713 148.295 190.017V184.818H149.552V189.932C149.552 190.528 149.719 191.004 150.053 191.359C150.39 191.714 150.82 191.892 151.342 191.892C151.654 191.892 151.972 191.812 152.295 191.652C152.622 191.493 152.896 191.248 153.116 190.917C153.339 190.587 153.451 190.166 153.451 189.655ZM162.806 186.651L161.677 186.97C161.606 186.782 161.501 186.599 161.363 186.422C161.228 186.24 161.043 186.091 160.809 185.974C160.574 185.857 160.274 185.798 159.909 185.798C159.408 185.798 158.991 185.914 158.657 186.145C158.327 186.372 158.161 186.661 158.161 187.013C158.161 187.325 158.275 187.572 158.502 187.753C158.73 187.934 159.085 188.085 159.568 188.206L160.782 188.504C161.514 188.682 162.059 188.953 162.418 189.319C162.776 189.681 162.956 190.148 162.956 190.72C162.956 191.189 162.821 191.608 162.551 191.977C162.284 192.347 161.911 192.638 161.432 192.851C160.953 193.064 160.395 193.17 159.759 193.17C158.925 193.17 158.234 192.989 157.687 192.627C157.141 192.265 156.794 191.736 156.649 191.04L157.842 190.741C157.956 191.182 158.17 191.512 158.486 191.732C158.806 191.952 159.223 192.062 159.738 192.062C160.324 192.062 160.789 191.938 161.134 191.69C161.482 191.437 161.656 191.136 161.656 190.784C161.656 190.5 161.556 190.262 161.358 190.07C161.159 189.875 160.853 189.729 160.441 189.634L159.078 189.314C158.328 189.136 157.778 188.861 157.426 188.488C157.078 188.112 156.904 187.641 156.904 187.077C156.904 186.615 157.034 186.207 157.293 185.852C157.556 185.496 157.913 185.218 158.364 185.015C158.818 184.813 159.333 184.712 159.909 184.712C160.718 184.712 161.354 184.889 161.816 185.244C162.281 185.599 162.611 186.068 162.806 186.651ZM170.004 189.655V184.818H171.261V193H170.004V191.615H169.919C169.727 192.031 169.429 192.384 169.024 192.675C168.619 192.963 168.108 193.107 167.49 193.107C166.979 193.107 166.524 192.995 166.126 192.771C165.729 192.544 165.416 192.203 165.189 191.748C164.961 191.29 164.848 190.713 164.848 190.017V184.818H166.105V189.932C166.105 190.528 166.272 191.004 166.606 191.359C166.943 191.714 167.373 191.892 167.895 191.892C168.207 191.892 168.525 191.812 168.848 191.652C169.175 191.493 169.448 191.248 169.669 190.917C169.892 190.587 170.004 190.166 170.004 189.655ZM175.971 193.192C175.453 193.192 174.982 193.094 174.56 192.899C174.137 192.7 173.802 192.414 173.553 192.041C173.304 191.665 173.18 191.21 173.18 190.678C173.18 190.209 173.272 189.829 173.457 189.538C173.642 189.243 173.889 189.012 174.198 188.845C174.506 188.678 174.847 188.554 175.22 188.472C175.597 188.387 175.975 188.32 176.355 188.27C176.852 188.206 177.255 188.158 177.564 188.126C177.877 188.091 178.104 188.032 178.246 187.95C178.391 187.869 178.464 187.727 178.464 187.524V187.482C178.464 186.956 178.32 186.548 178.033 186.256C177.749 185.965 177.317 185.82 176.738 185.82C176.138 185.82 175.668 185.951 175.327 186.214C174.986 186.477 174.746 186.757 174.608 187.055L173.415 186.629C173.628 186.132 173.912 185.745 174.267 185.468C174.625 185.187 175.016 184.992 175.439 184.882C175.865 184.768 176.284 184.712 176.696 184.712C176.959 184.712 177.26 184.744 177.601 184.808C177.946 184.868 178.278 184.994 178.597 185.186C178.921 185.377 179.189 185.667 179.402 186.054C179.615 186.441 179.721 186.96 179.721 187.609V193H178.464V191.892H178.4C178.315 192.07 178.173 192.26 177.974 192.462C177.775 192.664 177.511 192.837 177.18 192.979C176.85 193.121 176.447 193.192 175.971 193.192ZM176.163 192.062C176.66 192.062 177.079 191.965 177.42 191.77C177.765 191.574 178.024 191.322 178.198 191.013C178.375 190.704 178.464 190.379 178.464 190.038V188.888C178.411 188.952 178.294 189.01 178.113 189.064C177.935 189.113 177.729 189.158 177.495 189.197C177.264 189.232 177.038 189.264 176.818 189.293C176.602 189.317 176.426 189.339 176.291 189.357C175.964 189.399 175.659 189.468 175.375 189.564C175.094 189.657 174.867 189.797 174.693 189.985C174.522 190.17 174.437 190.422 174.437 190.741C174.437 191.178 174.599 191.509 174.922 191.732C175.249 191.952 175.662 192.062 176.163 192.062ZM182.016 193V184.818H183.23V186.054H183.316C183.465 185.649 183.735 185.321 184.125 185.069C184.516 184.816 184.956 184.69 185.446 184.69C185.539 184.69 185.654 184.692 185.792 184.696C185.931 184.699 186.036 184.705 186.107 184.712V185.99C186.064 185.979 185.966 185.963 185.814 185.942C185.665 185.917 185.507 185.905 185.34 185.905C184.942 185.905 184.587 185.988 184.274 186.155C183.965 186.319 183.72 186.546 183.539 186.837C183.362 187.125 183.273 187.453 183.273 187.822V193H182.016ZM187.597 193V184.818H188.854V193H187.597ZM188.236 183.455C187.991 183.455 187.78 183.371 187.602 183.204C187.428 183.037 187.341 182.837 187.341 182.602C187.341 182.368 187.428 182.167 187.602 182C187.78 181.833 187.991 181.75 188.236 181.75C188.481 181.75 188.691 181.833 188.865 182C189.042 182.167 189.131 182.368 189.131 182.602C189.131 182.837 189.042 183.037 188.865 183.204C188.691 183.371 188.481 183.455 188.236 183.455ZM194.48 193.17C193.742 193.17 193.094 192.995 192.536 192.643C191.982 192.292 191.549 191.8 191.236 191.168C190.927 190.536 190.773 189.797 190.773 188.952C190.773 188.099 190.927 187.355 191.236 186.72C191.549 186.084 191.982 185.591 192.536 185.239C193.094 184.887 193.742 184.712 194.48 184.712C195.219 184.712 195.865 184.887 196.419 185.239C196.977 185.591 197.41 186.084 197.719 186.72C198.031 187.355 198.188 188.099 198.188 188.952C198.188 189.797 198.031 190.536 197.719 191.168C197.41 191.8 196.977 192.292 196.419 192.643C195.865 192.995 195.219 193.17 194.48 193.17ZM194.48 192.041C195.041 192.041 195.503 191.897 195.865 191.61C196.227 191.322 196.496 190.944 196.67 190.475C196.844 190.006 196.931 189.499 196.931 188.952C196.931 188.405 196.844 187.895 196.67 187.423C196.496 186.951 196.227 186.569 195.865 186.278C195.503 185.987 195.041 185.841 194.48 185.841C193.919 185.841 193.458 185.987 193.095 186.278C192.733 186.569 192.465 186.951 192.291 187.423C192.117 187.895 192.03 188.405 192.03 188.952C192.03 189.499 192.117 190.006 192.291 190.475C192.465 190.944 192.733 191.322 193.095 191.61C193.458 191.897 193.919 192.041 194.48 192.041Z" fill="black"/>
<path d="M126.881 600V592.727H129.338C129.909 592.727 130.375 592.83 130.737 593.036C131.102 593.24 131.372 593.516 131.547 593.864C131.722 594.212 131.81 594.6 131.81 595.028C131.81 595.457 131.722 595.846 131.547 596.197C131.374 596.547 131.107 596.826 130.744 597.035C130.382 597.241 129.918 597.344 129.352 597.344H127.591V596.562H129.324C129.714 596.562 130.028 596.495 130.265 596.36C130.502 596.225 130.673 596.043 130.78 595.813C130.889 595.581 130.943 595.32 130.943 595.028C130.943 594.737 130.889 594.477 130.78 594.247C130.673 594.018 130.5 593.838 130.261 593.707C130.022 593.575 129.705 593.509 129.31 593.509H127.761V600H126.881ZM135.272 600.114C134.78 600.114 134.348 599.996 133.976 599.762C133.607 599.528 133.318 599.2 133.109 598.778C132.903 598.357 132.8 597.865 132.8 597.301C132.8 596.733 132.903 596.237 133.109 595.813C133.318 595.389 133.607 595.06 133.976 594.826C134.348 594.592 134.78 594.474 135.272 594.474C135.764 594.474 136.195 594.592 136.565 594.826C136.936 595.06 137.225 595.389 137.431 595.813C137.639 596.237 137.744 596.733 137.744 597.301C137.744 597.865 137.639 598.357 137.431 598.778C137.225 599.2 136.936 599.528 136.565 599.762C136.195 599.996 135.764 600.114 135.272 600.114ZM135.272 599.361C135.646 599.361 135.954 599.265 136.195 599.073C136.437 598.881 136.616 598.629 136.732 598.317C136.848 598.004 136.906 597.666 136.906 597.301C136.906 596.937 136.848 596.597 136.732 596.282C136.616 595.967 136.437 595.713 136.195 595.518C135.954 595.324 135.646 595.227 135.272 595.227C134.898 595.227 134.59 595.324 134.349 595.518C134.107 595.713 133.929 595.967 133.812 596.282C133.696 596.597 133.638 596.937 133.638 597.301C133.638 597.666 133.696 598.004 133.812 598.317C133.929 598.629 134.107 598.881 134.349 599.073C134.59 599.265 134.898 599.361 135.272 599.361ZM139.861 592.727V600H139.023V592.727H139.861ZM141.396 600V594.545H142.234V600H141.396ZM141.822 593.636C141.659 593.636 141.518 593.581 141.4 593.469C141.283 593.358 141.225 593.224 141.225 593.068C141.225 592.912 141.283 592.778 141.4 592.667C141.518 592.556 141.659 592.5 141.822 592.5C141.985 592.5 142.125 592.556 142.241 592.667C142.359 592.778 142.419 592.912 142.419 593.068C142.419 593.224 142.359 593.358 142.241 593.469C142.125 593.581 141.985 593.636 141.822 593.636ZM146.141 594.545V595.256H143.314V594.545H146.141ZM144.138 593.239H144.976V598.438C144.976 598.674 145.011 598.852 145.079 598.97C145.15 599.086 145.24 599.164 145.349 599.205C145.461 599.242 145.578 599.261 145.701 599.261C145.793 599.261 145.869 599.257 145.928 599.247C145.987 599.235 146.035 599.226 146.07 599.219L146.241 599.972C146.184 599.993 146.104 600.014 146.003 600.036C145.901 600.059 145.772 600.071 145.616 600.071C145.379 600.071 145.147 600.02 144.92 599.918C144.695 599.817 144.508 599.661 144.358 599.453C144.212 599.245 144.138 598.982 144.138 598.665V593.239ZM147.402 600V594.545H148.24V600H147.402ZM147.828 593.636C147.665 593.636 147.524 593.581 147.405 593.469C147.289 593.358 147.231 593.224 147.231 593.068C147.231 592.912 147.289 592.778 147.405 592.667C147.524 592.556 147.665 592.5 147.828 592.5C147.991 592.5 148.131 592.556 148.247 592.667C148.365 592.778 148.425 592.912 148.425 593.068C148.425 593.224 148.365 593.358 148.247 593.469C148.131 593.581 147.991 593.636 147.828 593.636ZM151.991 600.114C151.479 600.114 151.039 599.993 150.67 599.751C150.3 599.51 150.016 599.177 149.817 598.754C149.619 598.33 149.519 597.846 149.519 597.301C149.519 596.747 149.621 596.258 149.825 595.835C150.031 595.408 150.317 595.076 150.684 594.837C151.053 594.595 151.484 594.474 151.977 594.474C152.36 594.474 152.706 594.545 153.013 594.688C153.321 594.83 153.573 595.028 153.77 595.284C153.966 595.54 154.088 595.838 154.136 596.179H153.298C153.234 595.93 153.092 595.71 152.871 595.518C152.654 595.324 152.36 595.227 151.991 595.227C151.664 595.227 151.378 595.312 151.131 595.483C150.888 595.651 150.697 595.889 150.56 596.197C150.425 596.502 150.357 596.861 150.357 597.273C150.357 597.694 150.424 598.061 150.556 598.374C150.691 598.686 150.88 598.929 151.124 599.102C151.371 599.274 151.659 599.361 151.991 599.361C152.209 599.361 152.406 599.323 152.584 599.247C152.761 599.171 152.912 599.062 153.035 598.92C153.158 598.778 153.246 598.608 153.298 598.409H154.136C154.088 598.731 153.971 599.021 153.784 599.279C153.599 599.535 153.354 599.738 153.049 599.89C152.746 600.039 152.393 600.114 151.991 600.114ZM156.966 600.128C156.62 600.128 156.307 600.063 156.025 599.933C155.743 599.8 155.519 599.609 155.354 599.361C155.188 599.11 155.105 598.807 155.105 598.452C155.105 598.139 155.167 597.886 155.29 597.692C155.413 597.495 155.577 597.341 155.783 597.23C155.989 597.119 156.217 597.036 156.465 596.982C156.716 596.925 156.968 596.88 157.222 596.847C157.553 596.804 157.822 596.772 158.028 596.751C158.236 596.727 158.388 596.688 158.482 596.634C158.579 596.579 158.628 596.484 158.628 596.349V596.321C158.628 595.971 158.532 595.698 158.34 595.504C158.151 595.31 157.863 595.213 157.477 595.213C157.077 595.213 156.763 595.301 156.536 595.476C156.309 595.651 156.149 595.838 156.057 596.037L155.261 595.753C155.403 595.421 155.593 595.163 155.83 594.979C156.069 594.792 156.329 594.661 156.611 594.588C156.895 594.512 157.174 594.474 157.449 594.474C157.624 594.474 157.825 594.496 158.053 594.538C158.282 594.579 158.504 594.663 158.717 594.79C158.932 594.918 159.111 595.111 159.253 595.369C159.395 595.627 159.466 595.973 159.466 596.406V600H158.628V599.261H158.585C158.528 599.38 158.434 599.506 158.301 599.641C158.169 599.776 157.992 599.891 157.772 599.986C157.552 600.08 157.283 600.128 156.966 600.128ZM157.094 599.375C157.425 599.375 157.705 599.31 157.932 599.18C158.161 599.049 158.334 598.881 158.45 598.675C158.569 598.469 158.628 598.253 158.628 598.026V597.259C158.592 597.301 158.514 597.34 158.393 597.376C158.275 597.409 158.138 597.438 157.982 597.464C157.828 597.488 157.677 597.509 157.531 597.528C157.386 597.545 157.269 597.559 157.179 597.571C156.961 597.599 156.758 597.646 156.568 597.71C156.381 597.771 156.23 597.865 156.114 597.99C156 598.113 155.943 598.281 155.943 598.494C155.943 598.786 156.051 599.006 156.266 599.155C156.484 599.302 156.76 599.375 157.094 599.375ZM164.859 595.767L164.106 595.98C164.059 595.855 163.989 595.733 163.897 595.614C163.807 595.494 163.684 595.394 163.528 595.316C163.371 595.238 163.171 595.199 162.927 595.199C162.594 595.199 162.315 595.276 162.093 595.43C161.873 595.581 161.763 595.774 161.763 596.009C161.763 596.217 161.838 596.381 161.99 596.502C162.141 596.623 162.378 596.723 162.7 596.804L163.51 597.003C163.997 597.121 164.361 597.302 164.6 597.546C164.839 597.788 164.959 598.099 164.959 598.48C164.959 598.793 164.869 599.072 164.689 599.318C164.511 599.564 164.263 599.759 163.943 599.901C163.623 600.043 163.252 600.114 162.828 600.114C162.272 600.114 161.811 599.993 161.447 599.751C161.082 599.51 160.851 599.157 160.754 598.693L161.55 598.494C161.625 598.788 161.769 599.008 161.979 599.155C162.192 599.302 162.47 599.375 162.814 599.375C163.204 599.375 163.515 599.292 163.744 599.126C163.976 598.958 164.092 598.757 164.092 598.523C164.092 598.333 164.026 598.175 163.893 598.047C163.761 597.917 163.557 597.82 163.282 597.756L162.373 597.543C161.874 597.424 161.507 597.241 161.273 596.992C161.041 596.741 160.925 596.428 160.925 596.051C160.925 595.743 161.011 595.471 161.184 595.234C161.359 594.998 161.597 594.812 161.898 594.677C162.201 594.542 162.544 594.474 162.927 594.474C163.467 594.474 163.891 594.593 164.199 594.83C164.509 595.066 164.729 595.379 164.859 595.767ZM171.092 600.114C170.638 600.114 170.237 599.999 169.888 599.769C169.54 599.537 169.268 599.21 169.072 598.789C168.875 598.365 168.777 597.865 168.777 597.287C168.777 596.714 168.875 596.217 169.072 595.795C169.268 595.374 169.542 595.049 169.892 594.819C170.242 594.589 170.647 594.474 171.107 594.474C171.462 594.474 171.742 594.534 171.948 594.652C172.156 594.768 172.315 594.901 172.424 595.05C172.535 595.196 172.622 595.317 172.683 595.412H172.754V592.727H173.592V600H172.783V599.162H172.683C172.622 599.261 172.534 599.387 172.42 599.538C172.307 599.687 172.145 599.821 171.934 599.94C171.723 600.056 171.443 600.114 171.092 600.114ZM171.206 599.361C171.542 599.361 171.826 599.273 172.058 599.098C172.29 598.92 172.467 598.675 172.587 598.363C172.708 598.048 172.768 597.685 172.768 597.273C172.768 596.866 172.709 596.509 172.591 596.204C172.473 595.896 172.297 595.657 172.065 595.487C171.833 595.314 171.547 595.227 171.206 595.227C170.851 595.227 170.555 595.318 170.318 595.501C170.084 595.681 169.907 595.926 169.789 596.236C169.673 596.544 169.615 596.889 169.615 597.273C169.615 597.661 169.674 598.014 169.793 598.331C169.913 598.646 170.091 598.897 170.325 599.084C170.562 599.268 170.856 599.361 171.206 599.361ZM177.531 600.114C177.005 600.114 176.552 599.998 176.17 599.766C175.792 599.531 175.499 599.205 175.293 598.786C175.09 598.364 174.988 597.874 174.988 597.315C174.988 596.757 175.09 596.264 175.293 595.838C175.499 595.41 175.786 595.076 176.153 594.837C176.522 594.595 176.953 594.474 177.445 594.474C177.729 594.474 178.01 594.522 178.287 594.616C178.564 594.711 178.816 594.865 179.043 595.078C179.271 595.289 179.452 595.568 179.587 595.916C179.722 596.264 179.789 596.693 179.789 597.202V597.557H175.585V596.832H178.937C178.937 596.525 178.875 596.25 178.752 596.009C178.631 595.767 178.459 595.576 178.234 595.437C178.011 595.297 177.748 595.227 177.445 595.227C177.112 595.227 176.823 595.31 176.579 595.476C176.337 595.639 176.152 595.852 176.021 596.115C175.891 596.378 175.826 596.66 175.826 596.96V597.443C175.826 597.855 175.897 598.204 176.039 598.491C176.183 598.775 176.384 598.991 176.639 599.141C176.895 599.287 177.192 599.361 177.531 599.361C177.751 599.361 177.95 599.33 178.127 599.268C178.307 599.205 178.462 599.11 178.592 598.984C178.723 598.857 178.823 598.698 178.894 598.509L179.704 598.736C179.619 599.01 179.475 599.252 179.274 599.46C179.073 599.666 178.824 599.827 178.528 599.943C178.232 600.057 177.9 600.114 177.531 600.114ZM183.876 602.045V594.545H184.686V595.412H184.786C184.847 595.317 184.932 595.196 185.041 595.05C185.152 594.901 185.311 594.768 185.517 594.652C185.725 594.534 186.007 594.474 186.362 594.474C186.821 594.474 187.226 594.589 187.577 594.819C187.927 595.049 188.201 595.374 188.397 595.795C188.594 596.217 188.692 596.714 188.692 597.287C188.692 597.865 188.594 598.365 188.397 598.789C188.201 599.21 187.928 599.537 187.58 599.769C187.232 599.999 186.831 600.114 186.376 600.114C186.026 600.114 185.746 600.056 185.535 599.94C185.324 599.821 185.162 599.687 185.048 599.538C184.935 599.387 184.847 599.261 184.786 599.162H184.714V602.045H183.876ZM184.7 597.273C184.7 597.685 184.761 598.048 184.881 598.363C185.002 598.675 185.179 598.92 185.411 599.098C185.643 599.273 185.927 599.361 186.263 599.361C186.613 599.361 186.906 599.268 187.14 599.084C187.377 598.897 187.554 598.646 187.673 598.331C187.793 598.014 187.854 597.661 187.854 597.273C187.854 596.889 187.795 596.544 187.676 596.236C187.56 595.926 187.384 595.681 187.147 595.501C186.913 595.318 186.618 595.227 186.263 595.227C185.922 595.227 185.635 595.314 185.403 595.487C185.171 595.657 184.996 595.896 184.878 596.204C184.759 596.509 184.7 596.866 184.7 597.273ZM189.97 600V594.545H190.78V595.369H190.837C190.936 595.099 191.116 594.88 191.376 594.712C191.637 594.544 191.93 594.46 192.257 594.46C192.319 594.46 192.396 594.461 192.488 594.464C192.58 594.466 192.65 594.47 192.697 594.474V595.327C192.669 595.32 192.604 595.309 192.502 595.295C192.403 595.278 192.297 595.27 192.186 595.27C191.921 595.27 191.684 595.326 191.476 595.437C191.27 595.546 191.107 595.697 190.986 595.891C190.867 596.083 190.808 596.302 190.808 596.548V600H189.97ZM193.691 600V594.545H194.529V600H193.691ZM194.117 593.636C193.954 593.636 193.813 593.581 193.694 593.469C193.578 593.358 193.52 593.224 193.52 593.068C193.52 592.912 193.578 592.778 193.694 592.667C193.813 592.556 193.954 592.5 194.117 592.5C194.28 592.5 194.42 592.556 194.536 592.667C194.654 592.778 194.714 592.912 194.714 593.068C194.714 593.224 194.654 593.358 194.536 593.469C194.42 593.581 194.28 593.636 194.117 593.636ZM200.524 594.545L198.507 600H197.655L195.638 594.545H196.547L198.053 598.892H198.109L199.615 594.545H200.524ZM203.069 600.128C202.724 600.128 202.41 600.063 202.128 599.933C201.847 599.8 201.623 599.609 201.457 599.361C201.291 599.11 201.209 598.807 201.209 598.452C201.209 598.139 201.27 597.886 201.393 597.692C201.516 597.495 201.681 597.341 201.887 597.23C202.093 597.119 202.32 597.036 202.569 596.982C202.82 596.925 203.072 596.88 203.325 596.847C203.657 596.804 203.925 596.772 204.131 596.751C204.34 596.727 204.491 596.688 204.586 596.634C204.683 596.579 204.731 596.484 204.731 596.349V596.321C204.731 595.971 204.635 595.698 204.444 595.504C204.254 595.31 203.967 595.213 203.581 595.213C203.181 595.213 202.867 595.301 202.64 595.476C202.412 595.651 202.253 595.838 202.16 596.037L201.365 595.753C201.507 595.421 201.696 595.163 201.933 594.979C202.172 594.792 202.433 594.661 202.714 594.588C202.998 594.512 203.278 594.474 203.552 594.474C203.728 594.474 203.929 594.496 204.156 594.538C204.386 594.579 204.607 594.663 204.82 594.79C205.036 594.918 205.214 595.111 205.356 595.369C205.498 595.627 205.569 595.973 205.569 596.406V600H204.731V599.261H204.689C204.632 599.38 204.537 599.506 204.405 599.641C204.272 599.776 204.096 599.891 203.876 599.986C203.655 600.08 203.387 600.128 203.069 600.128ZM203.197 599.375C203.529 599.375 203.808 599.31 204.035 599.18C204.265 599.049 204.438 598.881 204.554 598.675C204.672 598.469 204.731 598.253 204.731 598.026V597.259C204.696 597.301 204.618 597.34 204.497 597.376C204.379 597.409 204.241 597.438 204.085 597.464C203.931 597.488 203.781 597.509 203.634 597.528C203.49 597.545 203.372 597.559 203.282 597.571C203.065 597.599 202.861 597.646 202.672 597.71C202.485 597.771 202.333 597.865 202.217 597.99C202.104 598.113 202.047 598.281 202.047 598.494C202.047 598.786 202.154 599.006 202.37 599.155C202.588 599.302 202.863 599.375 203.197 599.375ZM209.315 600.114C208.804 600.114 208.363 599.993 207.994 599.751C207.625 599.51 207.341 599.177 207.142 598.754C206.943 598.33 206.843 597.846 206.843 597.301C206.843 596.747 206.945 596.258 207.149 595.835C207.355 595.408 207.641 595.076 208.008 594.837C208.377 594.595 208.808 594.474 209.301 594.474C209.684 594.474 210.03 594.545 210.338 594.688C210.645 594.83 210.898 595.028 211.094 595.284C211.291 595.54 211.413 595.838 211.46 596.179H210.622C210.558 595.93 210.416 595.71 210.196 595.518C209.978 595.324 209.684 595.227 209.315 595.227C208.988 595.227 208.702 595.312 208.456 595.483C208.212 595.651 208.021 595.889 207.884 596.197C207.749 596.502 207.681 596.861 207.681 597.273C207.681 597.694 207.748 598.061 207.88 598.374C208.015 598.686 208.205 598.929 208.449 599.102C208.695 599.274 208.984 599.361 209.315 599.361C209.533 599.361 209.73 599.323 209.908 599.247C210.086 599.171 210.236 599.062 210.359 598.92C210.482 598.778 210.57 598.608 210.622 598.409H211.46C211.413 598.731 211.295 599.021 211.108 599.279C210.924 599.535 210.679 599.738 210.373 599.89C210.07 600.039 209.717 600.114 209.315 600.114ZM212.685 600V594.545H213.523V600H212.685ZM213.111 593.636C212.948 593.636 212.807 593.581 212.689 593.469C212.573 593.358 212.515 593.224 212.515 593.068C212.515 592.912 212.573 592.778 212.689 592.667C212.807 592.556 212.948 592.5 213.111 592.5C213.275 592.5 213.414 592.556 213.53 592.667C213.649 592.778 213.708 592.912 213.708 593.068C213.708 593.224 213.649 593.358 213.53 593.469C213.414 593.581 213.275 593.636 213.111 593.636ZM217.118 600.114C216.663 600.114 216.262 599.999 215.914 599.769C215.566 599.537 215.294 599.21 215.097 598.789C214.901 598.365 214.802 597.865 214.802 597.287C214.802 596.714 214.901 596.217 215.097 595.795C215.294 595.374 215.567 595.049 215.917 594.819C216.268 594.589 216.673 594.474 217.132 594.474C217.487 594.474 217.768 594.534 217.974 594.652C218.182 594.768 218.34 594.901 218.449 595.05C218.561 595.196 218.647 595.317 218.709 595.412H218.78V592.727H219.618V600H218.808V599.162H218.709C218.647 599.261 218.559 599.387 218.446 599.538C218.332 599.687 218.17 599.821 217.959 599.94C217.749 600.056 217.468 600.114 217.118 600.114ZM217.231 599.361C217.568 599.361 217.852 599.273 218.084 599.098C218.316 598.92 218.492 598.675 218.613 598.363C218.733 598.048 218.794 597.685 218.794 597.273C218.794 596.866 218.735 596.509 218.616 596.204C218.498 595.896 218.323 595.657 218.091 595.487C217.859 595.314 217.572 595.227 217.231 595.227C216.876 595.227 216.58 595.318 216.344 595.501C216.109 595.681 215.933 595.926 215.814 596.236C215.698 596.544 215.64 596.889 215.64 597.273C215.64 597.661 215.7 598.014 215.818 598.331C215.939 598.646 216.116 598.897 216.351 599.084C216.587 599.268 216.881 599.361 217.231 599.361ZM222.874 600.128C222.528 600.128 222.215 600.063 221.933 599.933C221.651 599.8 221.428 599.609 221.262 599.361C221.096 599.11 221.013 598.807 221.013 598.452C221.013 598.139 221.075 597.886 221.198 597.692C221.321 597.495 221.486 597.341 221.692 597.23C221.898 597.119 222.125 597.036 222.373 596.982C222.624 596.925 222.876 596.88 223.13 596.847C223.461 596.804 223.73 596.772 223.936 596.751C224.144 596.727 224.296 596.688 224.39 596.634C224.488 596.579 224.536 596.484 224.536 596.349V596.321C224.536 595.971 224.44 595.698 224.248 595.504C224.059 595.31 223.771 595.213 223.385 595.213C222.985 595.213 222.672 595.301 222.444 595.476C222.217 595.651 222.057 595.838 221.965 596.037L221.17 595.753C221.312 595.421 221.501 595.163 221.738 594.979C221.977 594.792 222.237 594.661 222.519 594.588C222.803 594.512 223.082 594.474 223.357 594.474C223.532 594.474 223.733 594.496 223.961 594.538C224.19 594.579 224.412 594.663 224.625 594.79C224.84 594.918 225.019 595.111 225.161 595.369C225.303 595.627 225.374 595.973 225.374 596.406V600H224.536V599.261H224.493C224.437 599.38 224.342 599.506 224.209 599.641C224.077 599.776 223.9 599.891 223.68 599.986C223.46 600.08 223.191 600.128 222.874 600.128ZM223.002 599.375C223.333 599.375 223.613 599.31 223.84 599.18C224.07 599.049 224.242 598.881 224.358 598.675C224.477 598.469 224.536 598.253 224.536 598.026V597.259C224.501 597.301 224.422 597.34 224.302 597.376C224.183 597.409 224.046 597.438 223.89 597.464C223.736 597.488 223.586 597.509 223.439 597.528C223.294 597.545 223.177 597.559 223.087 597.571C222.869 597.599 222.666 597.646 222.476 597.71C222.289 597.771 222.138 597.865 222.022 597.99C221.908 598.113 221.851 598.281 221.851 598.494C221.851 598.786 221.959 599.006 222.175 599.155C222.392 599.302 222.668 599.375 223.002 599.375ZM228.963 600.114C228.509 600.114 228.108 599.999 227.76 599.769C227.412 599.537 227.139 599.21 226.943 598.789C226.746 598.365 226.648 597.865 226.648 597.287C226.648 596.714 226.746 596.217 226.943 595.795C227.139 595.374 227.413 595.049 227.763 594.819C228.114 594.589 228.518 594.474 228.978 594.474C229.333 594.474 229.613 594.534 229.819 594.652C230.028 594.768 230.186 594.901 230.295 595.05C230.406 595.196 230.493 595.317 230.554 595.412H230.625V592.727H231.463V600H230.654V599.162H230.554C230.493 599.261 230.405 599.387 230.292 599.538C230.178 599.687 230.016 599.821 229.805 599.94C229.594 600.056 229.314 600.114 228.963 600.114ZM229.077 599.361C229.413 599.361 229.697 599.273 229.929 599.098C230.161 598.92 230.338 598.675 230.458 598.363C230.579 598.048 230.64 597.685 230.64 597.273C230.64 596.866 230.58 596.509 230.462 596.204C230.344 595.896 230.168 595.657 229.936 595.487C229.704 595.314 229.418 595.227 229.077 595.227C228.722 595.227 228.426 595.318 228.189 595.501C227.955 595.681 227.779 595.926 227.66 596.236C227.544 596.544 227.486 596.889 227.486 597.273C227.486 597.661 227.545 598.014 227.664 598.331C227.784 598.646 227.962 598.897 228.196 599.084C228.433 599.268 228.727 599.361 229.077 599.361Z" fill="#5E5858"/>
<path d="M76.0994 285.5H74.7784C74.7003 285.12 74.5636 284.786 74.3683 284.499C74.1765 284.211 73.9421 283.969 73.6651 283.774C73.3917 283.575 73.0881 283.426 72.7543 283.327C72.4205 283.227 72.0724 283.178 71.7102 283.178C71.0497 283.178 70.4513 283.344 69.9151 283.678C69.3825 284.012 68.9581 284.504 68.642 285.154C68.3295 285.804 68.1733 286.601 68.1733 287.545C68.1733 288.49 68.3295 289.287 68.642 289.937C68.9581 290.587 69.3825 291.079 69.9151 291.413C70.4513 291.746 71.0497 291.913 71.7102 291.913C72.0724 291.913 72.4205 291.864 72.7543 291.764C73.0881 291.665 73.3917 291.517 73.6651 291.322C73.9421 291.123 74.1765 290.88 74.3683 290.592C74.5636 290.301 74.7003 289.967 74.7784 289.591H76.0994C76 290.148 75.8189 290.647 75.5561 291.088C75.2933 291.528 74.9666 291.903 74.576 292.212C74.1854 292.517 73.7468 292.75 73.2603 292.909C72.7773 293.069 72.2607 293.149 71.7102 293.149C70.7798 293.149 69.9524 292.922 69.228 292.467C68.5036 292.013 67.9336 291.366 67.5181 290.528C67.1026 289.69 66.8949 288.696 66.8949 287.545C66.8949 286.395 67.1026 285.401 67.5181 284.562C67.9336 283.724 68.5036 283.078 69.228 282.624C69.9524 282.169 70.7798 281.942 71.7102 281.942C72.2607 281.942 72.7773 282.022 73.2603 282.181C73.7468 282.341 74.1854 282.576 74.576 282.885C74.9666 283.19 75.2933 283.563 75.5561 284.003C75.8189 284.44 76 284.939 76.0994 285.5ZM81.3875 293.17C80.6489 293.17 80.0008 292.995 79.4433 292.643C78.8893 292.292 78.4561 291.8 78.1436 291.168C77.8346 290.536 77.6801 289.797 77.6801 288.952C77.6801 288.099 77.8346 287.355 78.1436 286.72C78.4561 286.084 78.8893 285.591 79.4433 285.239C80.0008 284.887 80.6489 284.712 81.3875 284.712C82.1262 284.712 82.7725 284.887 83.3264 285.239C83.884 285.591 84.3172 286.084 84.6262 286.72C84.9387 287.355 85.0949 288.099 85.0949 288.952C85.0949 289.797 84.9387 290.536 84.6262 291.168C84.3172 291.8 83.884 292.292 83.3264 292.643C82.7725 292.995 82.1262 293.17 81.3875 293.17ZM81.3875 292.041C81.9486 292.041 82.4102 291.897 82.7725 291.61C83.1347 291.322 83.4028 290.944 83.5768 290.475C83.7508 290.006 83.8378 289.499 83.8378 288.952C83.8378 288.405 83.7508 287.895 83.5768 287.423C83.4028 286.951 83.1347 286.569 82.7725 286.278C82.4102 285.987 81.9486 285.841 81.3875 285.841C80.8264 285.841 80.3648 285.987 80.0026 286.278C79.6404 286.569 79.3722 286.951 79.1982 287.423C79.0242 287.895 78.9372 288.405 78.9372 288.952C78.9372 289.499 79.0242 290.006 79.1982 290.475C79.3722 290.944 79.6404 291.322 80.0026 291.61C80.3648 291.897 80.8264 292.041 81.3875 292.041ZM88.271 288.078V293H87.0138V284.818H88.2283V286.097H88.3349C88.5266 285.681 88.8178 285.347 89.2085 285.095C89.5991 284.839 90.1033 284.712 90.7212 284.712C91.2752 284.712 91.7599 284.825 92.1754 285.053C92.5909 285.276 92.9141 285.617 93.1449 286.075C93.3757 286.53 93.4911 287.105 93.4911 287.801V293H92.234V287.886C92.234 287.244 92.0671 286.743 91.7333 286.384C91.3995 286.022 90.9414 285.841 90.359 285.841C89.9577 285.841 89.5991 285.928 89.283 286.102C88.9705 286.276 88.7237 286.53 88.5426 286.864C88.3615 287.197 88.271 287.602 88.271 288.078ZM99.3465 284.818V285.884H95.1064V284.818H99.3465ZM96.3422 282.858H97.5993V290.656C97.5993 291.011 97.6508 291.278 97.7538 291.455C97.8604 291.629 97.9953 291.746 98.1586 291.807C98.3256 291.864 98.5013 291.892 98.686 291.892C98.8245 291.892 98.9381 291.885 99.0269 291.871C99.1157 291.853 99.1867 291.839 99.24 291.828L99.4957 292.957C99.4104 292.989 99.2915 293.021 99.1388 293.053C98.9861 293.089 98.7925 293.107 98.5582 293.107C98.203 293.107 97.855 293.03 97.5141 292.877C97.1768 292.725 96.8962 292.492 96.6725 292.18C96.4523 291.867 96.3422 291.473 96.3422 290.997V282.858ZM101.237 293V284.818H102.452V286.054H102.537C102.686 285.649 102.956 285.321 103.347 285.069C103.737 284.816 104.178 284.69 104.668 284.69C104.76 284.69 104.876 284.692 105.014 284.696C105.153 284.699 105.257 284.705 105.328 284.712V285.99C105.286 285.979 105.188 285.963 105.035 285.942C104.886 285.917 104.728 285.905 104.561 285.905C104.164 285.905 103.809 285.988 103.496 286.155C103.187 286.319 102.942 286.546 102.761 286.837C102.583 287.125 102.495 287.453 102.495 287.822V293H101.237ZM109.226 293.192C108.708 293.192 108.237 293.094 107.815 292.899C107.392 292.7 107.056 292.414 106.808 292.041C106.559 291.665 106.435 291.21 106.435 290.678C106.435 290.209 106.527 289.829 106.712 289.538C106.897 289.243 107.143 289.012 107.452 288.845C107.761 288.678 108.102 288.554 108.475 288.472C108.852 288.387 109.23 288.32 109.61 288.27C110.107 288.206 110.51 288.158 110.819 288.126C111.131 288.091 111.359 288.032 111.501 287.95C111.646 287.869 111.719 287.727 111.719 287.524V287.482C111.719 286.956 111.575 286.548 111.288 286.256C111.004 285.965 110.572 285.82 109.993 285.82C109.393 285.82 108.923 285.951 108.582 286.214C108.241 286.477 108.001 286.757 107.863 287.055L106.669 286.629C106.882 286.132 107.167 285.745 107.522 285.468C107.88 285.187 108.271 284.992 108.694 284.882C109.12 284.768 109.539 284.712 109.951 284.712C110.213 284.712 110.515 284.744 110.856 284.808C111.201 284.868 111.533 284.994 111.852 285.186C112.175 285.377 112.444 285.667 112.657 286.054C112.87 286.441 112.976 286.96 112.976 287.609V293H111.719V291.892H111.655C111.57 292.07 111.428 292.26 111.229 292.462C111.03 292.664 110.766 292.837 110.435 292.979C110.105 293.121 109.702 293.192 109.226 293.192ZM109.418 292.062C109.915 292.062 110.334 291.965 110.675 291.77C111.02 291.574 111.279 291.322 111.453 291.013C111.63 290.704 111.719 290.379 111.719 290.038V288.888C111.666 288.952 111.549 289.01 111.368 289.064C111.19 289.113 110.984 289.158 110.75 289.197C110.519 289.232 110.293 289.264 110.073 289.293C109.857 289.317 109.681 289.339 109.546 289.357C109.219 289.399 108.914 289.468 108.63 289.564C108.349 289.657 108.122 289.797 107.948 289.985C107.777 290.17 107.692 290.422 107.692 290.741C107.692 291.178 107.854 291.509 108.177 291.732C108.504 291.952 108.917 292.062 109.418 292.062ZM121.066 286.651L119.937 286.97C119.866 286.782 119.761 286.599 119.623 286.422C119.488 286.24 119.303 286.091 119.069 285.974C118.834 285.857 118.534 285.798 118.168 285.798C117.668 285.798 117.25 285.914 116.917 286.145C116.586 286.372 116.421 286.661 116.421 287.013C116.421 287.325 116.535 287.572 116.762 287.753C116.989 287.934 117.345 288.085 117.828 288.206L119.042 288.504C119.774 288.682 120.319 288.953 120.677 289.319C121.036 289.681 121.215 290.148 121.215 290.72C121.215 291.189 121.08 291.608 120.81 291.977C120.544 292.347 120.171 292.638 119.692 292.851C119.212 293.064 118.655 293.17 118.019 293.17C117.185 293.17 116.494 292.989 115.947 292.627C115.4 292.265 115.054 291.736 114.908 291.04L116.102 290.741C116.215 291.182 116.43 291.512 116.746 291.732C117.066 291.952 117.483 292.062 117.998 292.062C118.584 292.062 119.049 291.938 119.394 291.69C119.742 291.437 119.916 291.136 119.916 290.784C119.916 290.5 119.816 290.262 119.617 290.07C119.418 289.875 119.113 289.729 118.701 289.634L117.337 289.314C116.588 289.136 116.038 288.861 115.686 288.488C115.338 288.112 115.164 287.641 115.164 287.077C115.164 286.615 115.294 286.207 115.553 285.852C115.816 285.496 116.173 285.218 116.624 285.015C117.078 284.813 117.593 284.712 118.168 284.712C118.978 284.712 119.614 284.889 120.075 285.244C120.541 285.599 120.871 286.068 121.066 286.651ZM126.538 293.17C125.75 293.17 125.07 292.996 124.498 292.648C123.93 292.297 123.491 291.807 123.182 291.178C122.877 290.546 122.724 289.811 122.724 288.973C122.724 288.135 122.877 287.396 123.182 286.757C123.491 286.114 123.921 285.614 124.471 285.255C125.025 284.893 125.672 284.712 126.41 284.712C126.836 284.712 127.257 284.783 127.673 284.925C128.088 285.067 128.466 285.298 128.807 285.617C129.148 285.933 129.42 286.352 129.622 286.874C129.825 287.396 129.926 288.039 129.926 288.803V289.335H123.619V288.249H128.647C128.647 287.787 128.555 287.375 128.37 287.013C128.189 286.651 127.93 286.365 127.593 286.155C127.259 285.946 126.865 285.841 126.41 285.841C125.909 285.841 125.476 285.965 125.11 286.214C124.748 286.459 124.469 286.778 124.274 287.173C124.079 287.567 123.981 287.989 123.981 288.44V289.165C123.981 289.783 124.088 290.306 124.301 290.736C124.517 291.162 124.817 291.487 125.201 291.711C125.585 291.931 126.03 292.041 126.538 292.041C126.868 292.041 127.167 291.995 127.433 291.903C127.703 291.807 127.935 291.665 128.131 291.477C128.326 291.285 128.477 291.047 128.583 290.763L129.798 291.104C129.67 291.516 129.455 291.878 129.153 292.19C128.852 292.499 128.479 292.741 128.035 292.915C127.591 293.085 127.092 293.17 126.538 293.17ZM133.095 288.078V293H131.838V284.818H133.053V286.097H133.159C133.351 285.681 133.642 285.347 134.033 285.095C134.423 284.839 134.928 284.712 135.545 284.712C136.099 284.712 136.584 284.825 137 285.053C137.415 285.276 137.738 285.617 137.969 286.075C138.2 286.53 138.315 287.105 138.315 287.801V293H137.058V287.886C137.058 287.244 136.891 286.743 136.558 286.384C136.224 286.022 135.766 285.841 135.183 285.841C134.782 285.841 134.423 285.928 134.107 286.102C133.795 286.276 133.548 286.53 133.367 286.864C133.186 287.197 133.095 287.602 133.095 288.078ZM133.436 283.838L132.456 283.795C132.456 283.252 132.61 282.808 132.919 282.464C133.232 282.116 133.617 281.942 134.075 281.942C134.278 281.942 134.457 281.977 134.613 282.048C134.77 282.116 134.919 282.194 135.061 282.283C135.203 282.371 135.348 282.451 135.498 282.522C135.65 282.59 135.822 282.624 136.014 282.624C136.217 282.624 136.387 282.545 136.526 282.389C136.668 282.229 136.739 282.038 136.739 281.814L137.697 281.899C137.697 282.453 137.541 282.893 137.229 283.22C136.92 283.547 136.536 283.71 136.078 283.71C135.833 283.71 135.631 283.676 135.471 283.609C135.311 283.538 135.169 283.458 135.045 283.369C134.92 283.281 134.789 283.202 134.651 283.135C134.512 283.064 134.342 283.028 134.139 283.028C133.937 283.028 133.768 283.108 133.633 283.268C133.502 283.424 133.436 283.614 133.436 283.838ZM143.02 293.192C142.502 293.192 142.031 293.094 141.609 292.899C141.186 292.7 140.85 292.414 140.602 292.041C140.353 291.665 140.229 291.21 140.229 290.678C140.229 290.209 140.321 289.829 140.506 289.538C140.691 289.243 140.937 289.012 141.246 288.845C141.555 288.678 141.896 288.554 142.269 288.472C142.646 288.387 143.024 288.32 143.404 288.27C143.901 288.206 144.304 288.158 144.613 288.126C144.925 288.091 145.153 288.032 145.295 287.95C145.44 287.869 145.513 287.727 145.513 287.524V287.482C145.513 286.956 145.369 286.548 145.082 286.256C144.797 285.965 144.366 285.82 143.787 285.82C143.187 285.82 142.717 285.951 142.376 286.214C142.035 286.477 141.795 286.757 141.657 287.055L140.463 286.629C140.676 286.132 140.96 285.745 141.316 285.468C141.674 285.187 142.065 284.992 142.487 284.882C142.914 284.768 143.333 284.712 143.745 284.712C144.007 284.712 144.309 284.744 144.65 284.808C144.995 284.868 145.327 284.994 145.646 285.186C145.969 285.377 146.237 285.667 146.451 286.054C146.664 286.441 146.77 286.96 146.77 287.609V293H145.513V291.892H145.449C145.364 292.07 145.222 292.26 145.023 292.462C144.824 292.664 144.56 292.837 144.229 292.979C143.899 293.121 143.496 293.192 143.02 293.192ZM143.212 292.062C143.709 292.062 144.128 291.965 144.469 291.77C144.813 291.574 145.073 291.322 145.247 291.013C145.424 290.704 145.513 290.379 145.513 290.038V288.888C145.46 288.952 145.343 289.01 145.161 289.064C144.984 289.113 144.778 289.158 144.544 289.197C144.313 289.232 144.087 289.264 143.867 289.293C143.65 289.317 143.475 289.339 143.34 289.357C143.013 289.399 142.708 289.468 142.424 289.564C142.143 289.657 141.916 289.797 141.742 289.985C141.571 290.17 141.486 290.422 141.486 290.741C141.486 291.178 141.648 291.509 141.971 291.732C142.297 291.952 142.711 292.062 143.212 292.062Z" fill="black"/>
<path d="M151.753 319.5H150.608C150.54 319.171 150.422 318.881 150.252 318.632C150.086 318.383 149.883 318.174 149.643 318.004C149.406 317.832 149.143 317.703 148.854 317.616C148.564 317.53 148.263 317.487 147.949 317.487C147.376 317.487 146.858 317.632 146.393 317.921C145.931 318.21 145.564 318.637 145.29 319.2C145.019 319.763 144.884 320.454 144.884 321.273C144.884 322.091 145.019 322.782 145.29 323.346C145.564 323.909 145.931 324.335 146.393 324.624C146.858 324.914 147.376 325.058 147.949 325.058C148.263 325.058 148.564 325.015 148.854 324.929C149.143 324.843 149.406 324.715 149.643 324.546C149.883 324.373 150.086 324.163 150.252 323.913C150.422 323.661 150.54 323.372 150.608 323.045H151.753C151.667 323.529 151.51 323.961 151.282 324.343C151.054 324.724 150.771 325.049 150.433 325.317C150.094 325.581 149.714 325.783 149.292 325.922C148.874 326.06 148.426 326.129 147.949 326.129C147.143 326.129 146.425 325.932 145.798 325.538C145.17 325.144 144.676 324.584 144.316 323.858C143.956 323.132 143.776 322.27 143.776 321.273C143.776 320.276 143.956 319.414 144.316 318.688C144.676 317.961 145.17 317.401 145.798 317.007C146.425 316.613 147.143 316.416 147.949 316.416C148.426 316.416 148.874 316.485 149.292 316.624C149.714 316.762 150.094 316.966 150.433 317.233C150.771 317.498 151.054 317.821 151.282 318.203C151.51 318.581 151.667 319.014 151.753 319.5ZM156.336 326.148C155.696 326.148 155.134 325.995 154.651 325.691C154.171 325.386 153.795 324.96 153.524 324.412C153.257 323.864 153.123 323.224 153.123 322.491C153.123 321.753 153.257 321.108 153.524 320.557C153.795 320.006 154.171 319.578 154.651 319.274C155.134 318.969 155.696 318.817 156.336 318.817C156.976 318.817 157.536 318.969 158.016 319.274C158.499 319.578 158.875 320.006 159.143 320.557C159.414 321.108 159.549 321.753 159.549 322.491C159.549 323.224 159.414 323.864 159.143 324.412C158.875 324.96 158.499 325.386 158.016 325.691C157.536 325.995 156.976 326.148 156.336 326.148ZM156.336 325.169C156.822 325.169 157.222 325.044 157.536 324.795C157.85 324.546 158.082 324.218 158.233 323.812C158.384 323.406 158.459 322.965 158.459 322.491C158.459 322.018 158.384 321.576 158.233 321.167C158.082 320.757 157.85 320.426 157.536 320.174C157.222 319.922 156.822 319.795 156.336 319.795C155.85 319.795 155.449 319.922 155.136 320.174C154.822 320.426 154.589 320.757 154.438 321.167C154.288 321.576 154.212 322.018 154.212 322.491C154.212 322.965 154.288 323.406 154.438 323.812C154.589 324.218 154.822 324.546 155.136 324.795C155.449 325.044 155.85 325.169 156.336 325.169ZM162.301 321.734V326H161.212V318.909H162.265V320.017H162.357C162.523 319.657 162.775 319.368 163.114 319.149C163.453 318.928 163.89 318.817 164.425 318.817C164.905 318.817 165.325 318.915 165.685 319.112C166.045 319.306 166.326 319.602 166.526 319.999C166.726 320.393 166.826 320.891 166.826 321.494V326H165.736V321.568C165.736 321.011 165.592 320.577 165.302 320.266C165.013 319.952 164.616 319.795 164.111 319.795C163.763 319.795 163.453 319.871 163.179 320.022C162.908 320.172 162.694 320.393 162.537 320.682C162.38 320.971 162.301 321.322 162.301 321.734ZM171.9 318.909V319.832H168.226V318.909H171.9ZM169.297 317.21H170.386V323.969C170.386 324.277 170.431 324.507 170.52 324.661C170.612 324.812 170.729 324.914 170.871 324.966C171.015 325.015 171.168 325.04 171.328 325.04C171.448 325.04 171.546 325.034 171.623 325.021C171.7 325.006 171.762 324.994 171.808 324.984L172.03 325.963C171.956 325.991 171.853 326.018 171.72 326.046C171.588 326.077 171.42 326.092 171.217 326.092C170.909 326.092 170.608 326.026 170.312 325.894C170.02 325.761 169.777 325.56 169.583 325.289C169.392 325.018 169.297 324.677 169.297 324.264V317.21ZM173.539 326V318.909H174.592V319.98H174.666C174.795 319.629 175.029 319.345 175.367 319.126C175.706 318.908 176.087 318.798 176.512 318.798C176.592 318.798 176.692 318.8 176.812 318.803C176.932 318.806 177.023 318.811 177.085 318.817V319.925C177.048 319.915 176.963 319.902 176.831 319.883C176.701 319.862 176.564 319.851 176.42 319.851C176.075 319.851 175.767 319.923 175.497 320.068C175.229 320.209 175.016 320.406 174.859 320.659C174.706 320.908 174.629 321.193 174.629 321.513V326H173.539ZM180.463 326.166C180.013 326.166 179.606 326.082 179.239 325.912C178.873 325.74 178.582 325.492 178.367 325.169C178.151 324.843 178.044 324.449 178.044 323.987C178.044 323.581 178.124 323.252 178.284 322.999C178.444 322.744 178.658 322.544 178.925 322.399C179.193 322.254 179.489 322.147 179.812 322.076C180.138 322.002 180.466 321.944 180.795 321.901C181.226 321.845 181.575 321.804 181.843 321.776C182.114 321.745 182.311 321.694 182.434 321.624C182.56 321.553 182.623 321.43 182.623 321.254V321.217C182.623 320.762 182.499 320.408 182.249 320.156C182.003 319.903 181.629 319.777 181.127 319.777C180.607 319.777 180.2 319.891 179.904 320.119C179.609 320.346 179.401 320.589 179.281 320.848L178.247 320.479C178.431 320.048 178.678 319.712 178.985 319.472C179.296 319.229 179.635 319.06 180.001 318.964C180.37 318.866 180.734 318.817 181.091 318.817C181.318 318.817 181.58 318.844 181.875 318.9C182.174 318.952 182.462 319.061 182.739 319.228C183.019 319.394 183.251 319.645 183.436 319.98C183.62 320.316 183.713 320.765 183.713 321.328V326H182.623V325.04H182.568C182.494 325.194 182.371 325.358 182.199 325.534C182.026 325.709 181.797 325.858 181.511 325.982C181.224 326.105 180.875 326.166 180.463 326.166ZM180.629 325.188C181.06 325.188 181.423 325.103 181.718 324.934C182.017 324.764 182.242 324.546 182.392 324.278C182.546 324.01 182.623 323.729 182.623 323.433V322.436C182.577 322.491 182.475 322.542 182.319 322.588C182.165 322.632 181.986 322.67 181.783 322.704C181.583 322.735 181.388 322.762 181.197 322.787C181.009 322.808 180.857 322.827 180.74 322.842C180.457 322.879 180.192 322.939 179.946 323.022C179.703 323.102 179.506 323.224 179.355 323.387C179.207 323.547 179.133 323.766 179.133 324.043C179.133 324.421 179.273 324.707 179.553 324.901C179.836 325.092 180.195 325.188 180.629 325.188ZM190.724 320.497L189.745 320.774C189.684 320.611 189.593 320.453 189.473 320.299C189.356 320.142 189.196 320.012 188.993 319.911C188.79 319.809 188.53 319.759 188.213 319.759C187.779 319.759 187.417 319.859 187.128 320.059C186.842 320.256 186.698 320.506 186.698 320.811C186.698 321.082 186.797 321.296 186.994 321.453C187.191 321.61 187.499 321.741 187.917 321.845L188.97 322.104C189.604 322.258 190.076 322.493 190.387 322.81C190.698 323.124 190.853 323.529 190.853 324.024C190.853 324.43 190.736 324.794 190.502 325.114C190.272 325.434 189.948 325.686 189.533 325.871C189.117 326.055 188.634 326.148 188.083 326.148C187.36 326.148 186.762 325.991 186.288 325.677C185.814 325.363 185.514 324.904 185.387 324.301L186.421 324.043C186.52 324.424 186.706 324.71 186.98 324.901C187.257 325.092 187.619 325.188 188.065 325.188C188.573 325.188 188.976 325.08 189.274 324.864C189.576 324.646 189.727 324.384 189.727 324.08C189.727 323.833 189.641 323.627 189.468 323.461C189.296 323.292 189.031 323.165 188.674 323.082L187.492 322.805C186.843 322.652 186.366 322.413 186.061 322.09C185.76 321.764 185.609 321.356 185.609 320.866C185.609 320.466 185.721 320.112 185.946 319.805C186.174 319.497 186.483 319.255 186.874 319.08C187.268 318.904 187.714 318.817 188.213 318.817C188.914 318.817 189.465 318.971 189.865 319.278C190.268 319.586 190.555 319.992 190.724 320.497ZM195.466 326.148C194.783 326.148 194.194 325.997 193.698 325.695C193.206 325.391 192.826 324.966 192.558 324.421C192.293 323.873 192.161 323.236 192.161 322.51C192.161 321.784 192.293 321.143 192.558 320.589C192.826 320.032 193.198 319.598 193.675 319.288C194.155 318.974 194.715 318.817 195.355 318.817C195.725 318.817 196.089 318.878 196.45 319.001C196.81 319.125 197.137 319.325 197.433 319.602C197.728 319.875 197.964 320.239 198.139 320.691C198.315 321.143 198.402 321.701 198.402 322.362V322.824H192.936V321.882H197.294C197.294 321.482 197.214 321.125 197.054 320.811C196.897 320.497 196.673 320.249 196.38 320.068C196.091 319.886 195.749 319.795 195.355 319.795C194.922 319.795 194.546 319.903 194.229 320.119C193.915 320.331 193.674 320.608 193.504 320.95C193.335 321.291 193.25 321.657 193.25 322.048V322.676C193.25 323.212 193.343 323.666 193.527 324.038C193.715 324.407 193.975 324.689 194.308 324.883C194.64 325.074 195.026 325.169 195.466 325.169C195.752 325.169 196.011 325.129 196.242 325.049C196.476 324.966 196.677 324.843 196.847 324.68C197.016 324.513 197.147 324.307 197.239 324.061L198.292 324.357C198.181 324.714 197.995 325.027 197.733 325.298C197.471 325.566 197.148 325.775 196.763 325.926C196.379 326.074 195.946 326.148 195.466 326.148ZM201.149 321.734V326H200.06V318.909H201.112V320.017H201.205C201.371 319.657 201.623 319.368 201.962 319.149C202.3 318.928 202.737 318.817 203.273 318.817C203.753 318.817 204.173 318.915 204.533 319.112C204.893 319.306 205.173 319.602 205.373 319.999C205.573 320.393 205.673 320.891 205.673 321.494V326H204.584V321.568C204.584 321.011 204.439 320.577 204.15 320.266C203.861 319.952 203.464 319.795 202.959 319.795C202.611 319.795 202.3 319.871 202.026 320.022C201.755 320.172 201.542 320.393 201.385 320.682C201.228 320.971 201.149 321.322 201.149 321.734ZM201.445 318.06L200.595 318.023C200.595 317.552 200.729 317.167 200.997 316.869C201.268 316.567 201.602 316.416 201.999 316.416C202.174 316.416 202.329 316.447 202.465 316.509C202.6 316.567 202.73 316.635 202.853 316.712C202.976 316.789 203.102 316.858 203.231 316.919C203.364 316.978 203.513 317.007 203.679 317.007C203.854 317.007 204.002 316.939 204.122 316.804C204.245 316.665 204.307 316.499 204.307 316.305L205.138 316.379C205.138 316.859 205.002 317.241 204.732 317.524C204.464 317.807 204.131 317.949 203.734 317.949C203.522 317.949 203.347 317.92 203.208 317.861C203.07 317.8 202.946 317.73 202.839 317.653C202.731 317.576 202.617 317.509 202.497 317.45C202.377 317.389 202.229 317.358 202.054 317.358C201.879 317.358 201.732 317.427 201.615 317.566C201.502 317.701 201.445 317.866 201.445 318.06ZM209.751 326.166C209.301 326.166 208.894 326.082 208.527 325.912C208.161 325.74 207.87 325.492 207.655 325.169C207.439 324.843 207.332 324.449 207.332 323.987C207.332 323.581 207.412 323.252 207.572 322.999C207.732 322.744 207.946 322.544 208.214 322.399C208.481 322.254 208.777 322.147 209.1 322.076C209.426 322.002 209.754 321.944 210.083 321.901C210.514 321.845 210.863 321.804 211.131 321.776C211.402 321.745 211.599 321.694 211.722 321.624C211.848 321.553 211.911 321.43 211.911 321.254V321.217C211.911 320.762 211.787 320.408 211.537 320.156C211.291 319.903 210.917 319.777 210.416 319.777C209.895 319.777 209.488 319.891 209.192 320.119C208.897 320.346 208.689 320.589 208.569 320.848L207.535 320.479C207.72 320.048 207.966 319.712 208.274 319.472C208.584 319.229 208.923 319.06 209.289 318.964C209.658 318.866 210.022 318.817 210.379 318.817C210.606 318.817 210.868 318.844 211.163 318.9C211.462 318.952 211.75 319.061 212.027 319.228C212.307 319.394 212.539 319.645 212.724 319.98C212.908 320.316 213.001 320.765 213.001 321.328V326H211.911V325.04H211.856C211.782 325.194 211.659 325.358 211.487 325.534C211.314 325.709 211.085 325.858 210.799 325.982C210.513 326.105 210.163 326.166 209.751 326.166ZM209.917 325.188C210.348 325.188 210.711 325.103 211.006 324.934C211.305 324.764 211.53 324.546 211.68 324.278C211.834 324.01 211.911 323.729 211.911 323.433V322.436C211.865 322.491 211.764 322.542 211.607 322.588C211.453 322.632 211.274 322.67 211.071 322.704C210.871 322.735 210.676 322.762 210.485 322.787C210.297 322.808 210.145 322.827 210.028 322.842C209.745 322.879 209.48 322.939 209.234 323.022C208.991 323.102 208.794 323.224 208.643 323.387C208.495 323.547 208.421 323.766 208.421 324.043C208.421 324.421 208.561 324.707 208.841 324.901C209.124 325.092 209.483 325.188 209.917 325.188Z" fill="#5E5858"/>
<path d="M120.642 213.545V223H119.534L114.382 215.577H114.29V223H113.145V213.545H114.253L119.423 220.987H119.516V213.545H120.642ZM125.666 223.148C125.026 223.148 124.464 222.995 123.981 222.691C123.501 222.386 123.125 221.96 122.854 221.412C122.587 220.864 122.453 220.224 122.453 219.491C122.453 218.753 122.587 218.108 122.854 217.557C123.125 217.006 123.501 216.578 123.981 216.274C124.464 215.969 125.026 215.817 125.666 215.817C126.306 215.817 126.866 215.969 127.346 216.274C127.83 216.578 128.205 217.006 128.473 217.557C128.744 218.108 128.879 218.753 128.879 219.491C128.879 220.224 128.744 220.864 128.473 221.412C128.205 221.96 127.83 222.386 127.346 222.691C126.866 222.995 126.306 223.148 125.666 223.148ZM125.666 222.169C126.152 222.169 126.552 222.044 126.866 221.795C127.18 221.546 127.412 221.218 127.563 220.812C127.714 220.406 127.79 219.965 127.79 219.491C127.79 219.018 127.714 218.576 127.563 218.167C127.412 217.757 127.18 217.426 126.866 217.174C126.552 216.922 126.152 216.795 125.666 216.795C125.18 216.795 124.78 216.922 124.466 217.174C124.152 217.426 123.919 217.757 123.769 218.167C123.618 218.576 123.542 219.018 123.542 219.491C123.542 219.965 123.618 220.406 123.769 220.812C123.919 221.218 124.152 221.546 124.466 221.795C124.78 222.044 125.18 222.169 125.666 222.169ZM130.542 223V215.909H131.595V217.017H131.687C131.835 216.638 132.073 216.345 132.403 216.135C132.732 215.923 133.127 215.817 133.589 215.817C134.057 215.817 134.446 215.923 134.757 216.135C135.071 216.345 135.316 216.638 135.491 217.017H135.565C135.746 216.651 136.019 216.36 136.382 216.145C136.745 215.926 137.181 215.817 137.688 215.817C138.322 215.817 138.841 216.015 139.244 216.412C139.647 216.806 139.849 217.42 139.849 218.254V223H138.759V218.254C138.759 217.731 138.616 217.357 138.33 217.132C138.044 216.908 137.707 216.795 137.319 216.795C136.82 216.795 136.434 216.946 136.16 217.248C135.886 217.546 135.749 217.925 135.749 218.384V223H134.642V218.143C134.642 217.74 134.511 217.416 134.249 217.169C133.988 216.92 133.651 216.795 133.238 216.795C132.955 216.795 132.69 216.871 132.444 217.022C132.201 217.172 132.004 217.382 131.853 217.65C131.705 217.914 131.632 218.22 131.632 218.568V223H130.542ZM141.989 223V213.545H143.078V217.036H143.17C143.25 216.912 143.361 216.755 143.503 216.565C143.647 216.371 143.854 216.198 144.121 216.048C144.392 215.894 144.759 215.817 145.22 215.817C145.817 215.817 146.344 215.966 146.799 216.265C147.254 216.563 147.61 216.986 147.865 217.534C148.121 218.082 148.249 218.728 148.249 219.473C148.249 220.224 148.121 220.875 147.865 221.426C147.61 221.974 147.256 222.398 146.804 222.7C146.351 222.998 145.83 223.148 145.239 223.148C144.783 223.148 144.418 223.072 144.145 222.922C143.871 222.768 143.66 222.594 143.512 222.4C143.364 222.203 143.25 222.04 143.17 221.911H143.041V223H141.989ZM143.06 219.455C143.06 219.99 143.138 220.462 143.295 220.872C143.452 221.278 143.681 221.597 143.983 221.827C144.285 222.055 144.654 222.169 145.091 222.169C145.546 222.169 145.926 222.049 146.231 221.809C146.539 221.566 146.77 221.24 146.924 220.83C147.081 220.418 147.159 219.959 147.159 219.455C147.159 218.956 147.082 218.507 146.928 218.107C146.777 217.703 146.548 217.385 146.24 217.151C145.936 216.914 145.553 216.795 145.091 216.795C144.648 216.795 144.275 216.908 143.974 217.132C143.672 217.354 143.444 217.665 143.29 218.065C143.137 218.462 143.06 218.925 143.06 219.455ZM149.915 223V215.909H150.968V216.98H151.042C151.171 216.629 151.405 216.345 151.743 216.126C152.082 215.908 152.463 215.798 152.888 215.798C152.968 215.798 153.068 215.8 153.188 215.803C153.308 215.806 153.399 215.811 153.461 215.817V216.925C153.424 216.915 153.339 216.902 153.207 216.883C153.077 216.862 152.94 216.851 152.796 216.851C152.451 216.851 152.143 216.923 151.873 217.068C151.605 217.209 151.392 217.406 151.235 217.659C151.082 217.908 151.005 218.193 151.005 218.513V223H149.915ZM157.509 223.148C156.826 223.148 156.237 222.997 155.741 222.695C155.249 222.391 154.869 221.966 154.601 221.421C154.336 220.873 154.204 220.236 154.204 219.51C154.204 218.784 154.336 218.143 154.601 217.589C154.869 217.032 155.241 216.598 155.718 216.288C156.198 215.974 156.758 215.817 157.398 215.817C157.768 215.817 158.132 215.878 158.493 216.001C158.853 216.125 159.18 216.325 159.476 216.602C159.771 216.875 160.007 217.239 160.182 217.691C160.358 218.143 160.445 218.701 160.445 219.362V219.824H154.979V218.882H159.337C159.337 218.482 159.257 218.125 159.097 217.811C158.94 217.497 158.716 217.249 158.423 217.068C158.134 216.886 157.792 216.795 157.398 216.795C156.964 216.795 156.589 216.903 156.272 217.119C155.958 217.331 155.717 217.608 155.547 217.95C155.378 218.291 155.293 218.657 155.293 219.048V219.676C155.293 220.212 155.386 220.666 155.57 221.038C155.758 221.407 156.018 221.689 156.35 221.883C156.683 222.074 157.069 222.169 157.509 222.169C157.795 222.169 158.054 222.129 158.285 222.049C158.519 221.966 158.72 221.843 158.89 221.68C159.059 221.513 159.19 221.307 159.282 221.061L160.335 221.357C160.224 221.714 160.038 222.027 159.776 222.298C159.514 222.566 159.191 222.775 158.806 222.926C158.422 223.074 157.989 223.148 157.509 223.148ZM168.436 223.148C167.846 223.148 167.324 222.998 166.871 222.7C166.419 222.398 166.065 221.974 165.81 221.426C165.554 220.875 165.426 220.224 165.426 219.473C165.426 218.728 165.554 218.082 165.81 217.534C166.065 216.986 166.421 216.563 166.876 216.265C167.332 215.966 167.858 215.817 168.455 215.817C168.917 215.817 169.281 215.894 169.549 216.048C169.82 216.198 170.026 216.371 170.168 216.565C170.312 216.755 170.425 216.912 170.505 217.036H170.597V213.545H171.686V223H170.634V221.911H170.505C170.425 222.04 170.311 222.203 170.163 222.4C170.015 222.594 169.804 222.768 169.531 222.922C169.257 223.072 168.892 223.148 168.436 223.148ZM168.584 222.169C169.021 222.169 169.391 222.055 169.692 221.827C169.994 221.597 170.223 221.278 170.38 220.872C170.537 220.462 170.615 219.99 170.615 219.455C170.615 218.925 170.538 218.462 170.385 218.065C170.231 217.665 170.003 217.354 169.701 217.132C169.4 216.908 169.027 216.795 168.584 216.795C168.123 216.795 167.738 216.914 167.43 217.151C167.125 217.385 166.896 217.703 166.742 218.107C166.591 218.507 166.516 218.956 166.516 219.455C166.516 219.959 166.593 220.418 166.747 220.83C166.904 221.24 167.135 221.566 167.439 221.809C167.747 222.049 168.129 222.169 168.584 222.169ZM176.806 223.148C176.123 223.148 175.533 222.997 175.038 222.695C174.546 222.391 174.165 221.966 173.898 221.421C173.633 220.873 173.501 220.236 173.501 219.51C173.501 218.784 173.633 218.143 173.898 217.589C174.165 217.032 174.538 216.598 175.015 216.288C175.495 215.974 176.055 215.817 176.695 215.817C177.065 215.817 177.429 215.878 177.789 216.001C178.15 216.125 178.477 216.325 178.773 216.602C179.068 216.875 179.304 217.239 179.479 217.691C179.654 218.143 179.742 218.701 179.742 219.362V219.824H174.276V218.882H178.634C178.634 218.482 178.554 218.125 178.394 217.811C178.237 217.497 178.013 217.249 177.72 217.068C177.431 216.886 177.089 216.795 176.695 216.795C176.261 216.795 175.886 216.903 175.569 217.119C175.255 217.331 175.013 217.608 174.844 217.95C174.675 218.291 174.59 218.657 174.59 219.048V219.676C174.59 220.212 174.683 220.666 174.867 221.038C175.055 221.407 175.315 221.689 175.647 221.883C175.98 222.074 176.366 222.169 176.806 222.169C177.092 222.169 177.351 222.129 177.582 222.049C177.816 221.966 178.017 221.843 178.186 221.68C178.356 221.513 178.487 221.307 178.579 221.061L179.631 221.357C179.521 221.714 179.334 222.027 179.073 222.298C178.811 222.566 178.488 222.775 178.103 222.926C177.719 223.074 177.286 223.148 176.806 223.148ZM189.525 220.101V215.909H190.614V223H189.525V221.8H189.451C189.284 222.16 189.026 222.466 188.675 222.718C188.324 222.968 187.881 223.092 187.346 223.092C186.902 223.092 186.508 222.995 186.164 222.801C185.819 222.605 185.548 222.309 185.351 221.915C185.154 221.518 185.056 221.018 185.056 220.415V215.909H186.145V220.341C186.145 220.858 186.29 221.27 186.579 221.578C186.872 221.886 187.244 222.04 187.696 222.04C187.967 222.04 188.243 221.971 188.523 221.832C188.806 221.694 189.043 221.481 189.234 221.195C189.428 220.909 189.525 220.544 189.525 220.101ZM197.632 217.497L196.653 217.774C196.592 217.611 196.501 217.453 196.381 217.299C196.264 217.142 196.104 217.012 195.901 216.911C195.698 216.809 195.438 216.759 195.121 216.759C194.687 216.759 194.325 216.859 194.036 217.059C193.75 217.256 193.607 217.506 193.607 217.811C193.607 218.082 193.705 218.296 193.902 218.453C194.099 218.61 194.407 218.741 194.825 218.845L195.878 219.104C196.512 219.258 196.984 219.493 197.295 219.81C197.606 220.124 197.761 220.529 197.761 221.024C197.761 221.43 197.645 221.794 197.411 222.114C197.18 222.434 196.857 222.686 196.441 222.871C196.026 223.055 195.542 223.148 194.992 223.148C194.268 223.148 193.67 222.991 193.196 222.677C192.722 222.363 192.422 221.904 192.296 221.301L193.33 221.043C193.428 221.424 193.614 221.71 193.888 221.901C194.165 222.092 194.527 222.188 194.973 222.188C195.481 222.188 195.884 222.08 196.183 221.864C196.484 221.646 196.635 221.384 196.635 221.08C196.635 220.833 196.549 220.627 196.377 220.461C196.204 220.292 195.939 220.165 195.582 220.082L194.401 219.805C193.751 219.652 193.274 219.413 192.97 219.09C192.668 218.764 192.517 218.356 192.517 217.866C192.517 217.466 192.629 217.112 192.854 216.805C193.082 216.497 193.391 216.255 193.782 216.08C194.176 215.904 194.622 215.817 195.121 215.817C195.823 215.817 196.373 215.971 196.774 216.278C197.177 216.586 197.463 216.992 197.632 217.497ZM203.87 220.101V215.909H204.96V223H203.87V221.8H203.796C203.63 222.16 203.372 222.466 203.021 222.718C202.67 222.968 202.227 223.092 201.691 223.092C201.248 223.092 200.854 222.995 200.509 222.801C200.165 222.605 199.894 222.309 199.697 221.915C199.5 221.518 199.401 221.018 199.401 220.415V215.909H200.491V220.341C200.491 220.858 200.636 221.27 200.925 221.578C201.217 221.886 201.59 222.04 202.042 222.04C202.313 222.04 202.588 221.971 202.868 221.832C203.152 221.694 203.389 221.481 203.579 221.195C203.773 220.909 203.87 220.544 203.87 220.101ZM209.042 223.166C208.592 223.166 208.185 223.082 207.818 222.912C207.452 222.74 207.161 222.492 206.946 222.169C206.73 221.843 206.623 221.449 206.623 220.987C206.623 220.581 206.703 220.252 206.863 219.999C207.023 219.744 207.237 219.544 207.505 219.399C207.772 219.254 208.068 219.147 208.391 219.076C208.717 219.002 209.045 218.944 209.374 218.901C209.805 218.845 210.154 218.804 210.422 218.776C210.693 218.745 210.89 218.694 211.013 218.624C211.139 218.553 211.202 218.43 211.202 218.254V218.217C211.202 217.762 211.078 217.408 210.828 217.156C210.582 216.903 210.208 216.777 209.707 216.777C209.186 216.777 208.779 216.891 208.483 217.119C208.188 217.346 207.98 217.589 207.86 217.848L206.826 217.479C207.011 217.048 207.257 216.712 207.565 216.472C207.875 216.229 208.214 216.06 208.58 215.964C208.949 215.866 209.313 215.817 209.67 215.817C209.897 215.817 210.159 215.844 210.454 215.9C210.753 215.952 211.041 216.061 211.318 216.228C211.598 216.394 211.83 216.645 212.015 216.98C212.199 217.316 212.292 217.765 212.292 218.328V223H211.202V222.04H211.147C211.073 222.194 210.95 222.358 210.778 222.534C210.605 222.709 210.376 222.858 210.09 222.982C209.804 223.105 209.454 223.166 209.042 223.166ZM209.208 222.188C209.639 222.188 210.002 222.103 210.297 221.934C210.596 221.764 210.821 221.546 210.972 221.278C211.125 221.01 211.202 220.729 211.202 220.433V219.436C211.156 219.491 211.055 219.542 210.898 219.588C210.744 219.632 210.565 219.67 210.362 219.704C210.162 219.735 209.967 219.762 209.776 219.787C209.588 219.808 209.436 219.827 209.319 219.842C209.036 219.879 208.771 219.939 208.525 220.022C208.282 220.102 208.085 220.224 207.934 220.387C207.786 220.547 207.712 220.766 207.712 221.043C207.712 221.421 207.852 221.707 208.132 221.901C208.416 222.092 208.774 222.188 209.208 222.188ZM214.28 223V215.909H215.333V216.98H215.407C215.536 216.629 215.77 216.345 216.108 216.126C216.447 215.908 216.829 215.798 217.253 215.798C217.333 215.798 217.433 215.8 217.553 215.803C217.673 215.806 217.764 215.811 217.826 215.817V216.925C217.789 216.915 217.704 216.902 217.572 216.883C217.443 216.862 217.306 216.851 217.161 216.851C216.816 216.851 216.509 216.923 216.238 217.068C215.97 217.209 215.758 217.406 215.601 217.659C215.447 217.908 215.37 218.193 215.37 218.513V223H214.28ZM219.117 223V215.909H220.207V223H219.117ZM219.671 214.727C219.459 214.727 219.276 214.655 219.122 214.51C218.971 214.366 218.896 214.192 218.896 213.989C218.896 213.786 218.971 213.612 219.122 213.467C219.276 213.322 219.459 213.25 219.671 213.25C219.884 213.25 220.065 213.322 220.216 213.467C220.37 213.612 220.447 213.786 220.447 213.989C220.447 214.192 220.37 214.366 220.216 214.51C220.065 214.655 219.884 214.727 219.671 214.727ZM225.083 223.148C224.443 223.148 223.881 222.995 223.398 222.691C222.918 222.386 222.542 221.96 222.271 221.412C222.004 220.864 221.87 220.224 221.87 219.491C221.87 218.753 222.004 218.108 222.271 217.557C222.542 217.006 222.918 216.578 223.398 216.274C223.881 215.969 224.443 215.817 225.083 215.817C225.723 215.817 226.283 215.969 226.763 216.274C227.247 216.578 227.622 217.006 227.89 217.557C228.161 218.108 228.296 218.753 228.296 219.491C228.296 220.224 228.161 220.864 227.89 221.412C227.622 221.96 227.247 222.386 226.763 222.691C226.283 222.995 225.723 223.148 225.083 223.148ZM225.083 222.169C225.569 222.169 225.969 222.044 226.283 221.795C226.597 221.546 226.829 221.218 226.98 220.812C227.131 220.406 227.206 219.965 227.206 219.491C227.206 219.018 227.131 218.576 226.98 218.167C226.829 217.757 226.597 217.426 226.283 217.174C225.969 216.922 225.569 216.795 225.083 216.795C224.597 216.795 224.197 216.922 223.883 217.174C223.569 217.426 223.336 217.757 223.186 218.167C223.035 218.576 222.959 219.018 222.959 219.491C222.959 219.965 223.035 220.406 223.186 220.812C223.336 221.218 223.569 221.546 223.883 221.795C224.197 222.044 224.597 222.169 225.083 222.169Z" fill="#5E5858"/>
<g filter="url(#filter4_d_75_219)">
<rect x="90" y="482" width="178" height="34" rx="5" fill="#00B3FF"/>
<rect x="90.5" y="482.5" width="177" height="33" rx="4.5" stroke="#00B3FF"/>
</g>
<path d="M139.321 504V493.091H143.007C143.859 493.091 144.559 493.237 145.106 493.528C145.653 493.815 146.058 494.211 146.32 494.716C146.583 495.22 146.714 495.793 146.714 496.436C146.714 497.079 146.583 497.649 146.32 498.146C146.058 498.643 145.654 499.034 145.111 499.318C144.568 499.598 143.874 499.739 143.028 499.739H140.045V498.545H142.986C143.568 498.545 144.037 498.46 144.392 498.29C144.751 498.119 145.01 497.878 145.17 497.565C145.333 497.249 145.415 496.873 145.415 496.436C145.415 495.999 145.333 495.618 145.17 495.291C145.006 494.964 144.745 494.712 144.387 494.534C144.028 494.353 143.554 494.263 142.964 494.263H140.642V504H139.321ZM144.456 499.099L147.141 504H145.607L142.964 499.099H144.456ZM152.088 504.17C151.299 504.17 150.619 503.996 150.048 503.648C149.479 503.297 149.041 502.807 148.732 502.178C148.427 501.546 148.274 500.811 148.274 499.973C148.274 499.135 148.427 498.396 148.732 497.757C149.041 497.114 149.471 496.614 150.021 496.255C150.575 495.893 151.221 495.712 151.96 495.712C152.386 495.712 152.807 495.783 153.222 495.925C153.638 496.067 154.016 496.298 154.357 496.617C154.698 496.933 154.97 497.352 155.172 497.874C155.374 498.396 155.476 499.039 155.476 499.803V500.335H149.169V499.249H154.197C154.197 498.787 154.105 498.375 153.92 498.013C153.739 497.651 153.48 497.365 153.142 497.155C152.809 496.946 152.415 496.841 151.96 496.841C151.459 496.841 151.026 496.965 150.66 497.214C150.298 497.459 150.019 497.778 149.824 498.173C149.629 498.567 149.531 498.989 149.531 499.44V500.165C149.531 500.783 149.638 501.306 149.851 501.736C150.067 502.162 150.367 502.487 150.751 502.711C151.134 502.931 151.58 503.041 152.088 503.041C152.418 503.041 152.716 502.995 152.983 502.903C153.253 502.807 153.485 502.665 153.68 502.477C153.876 502.285 154.027 502.047 154.133 501.763L155.348 502.104C155.22 502.516 155.005 502.878 154.703 503.19C154.401 503.499 154.028 503.741 153.585 503.915C153.141 504.085 152.642 504.17 152.088 504.17ZM160.69 507.239C160.083 507.239 159.561 507.161 159.124 507.004C158.688 506.852 158.324 506.649 158.032 506.397C157.745 506.148 157.516 505.882 157.345 505.598L158.347 504.895C158.46 505.044 158.604 505.214 158.778 505.406C158.952 505.602 159.19 505.77 159.492 505.912C159.797 506.058 160.197 506.131 160.69 506.131C161.351 506.131 161.896 505.971 162.326 505.651C162.755 505.332 162.97 504.831 162.97 504.149V502.487H162.864C162.771 502.636 162.64 502.821 162.47 503.041C162.303 503.258 162.061 503.451 161.745 503.622C161.433 503.789 161.01 503.872 160.477 503.872C159.817 503.872 159.224 503.716 158.698 503.403C158.176 503.091 157.763 502.636 157.457 502.04C157.155 501.443 157.004 500.719 157.004 499.866C157.004 499.028 157.152 498.299 157.446 497.677C157.741 497.052 158.151 496.569 158.677 496.228C159.203 495.884 159.81 495.712 160.499 495.712C161.031 495.712 161.454 495.8 161.766 495.978C162.082 496.152 162.324 496.351 162.491 496.575C162.661 496.795 162.793 496.976 162.885 497.118H163.013V495.818H164.227V504.234C164.227 504.938 164.068 505.509 163.748 505.95C163.432 506.393 163.006 506.718 162.47 506.924C161.937 507.134 161.344 507.239 160.69 507.239ZM160.648 502.743C161.152 502.743 161.578 502.627 161.926 502.397C162.274 502.166 162.539 501.834 162.72 501.401C162.901 500.967 162.992 500.449 162.992 499.845C162.992 499.256 162.903 498.735 162.725 498.284C162.548 497.833 162.285 497.48 161.937 497.224C161.589 496.969 161.159 496.841 160.648 496.841C160.115 496.841 159.671 496.976 159.316 497.246C158.965 497.516 158.7 497.878 158.522 498.332C158.348 498.787 158.261 499.291 158.261 499.845C158.261 500.413 158.35 500.916 158.528 501.353C158.709 501.786 158.975 502.127 159.327 502.375C159.682 502.62 160.122 502.743 160.648 502.743ZM166.528 504V495.818H167.786V504H166.528ZM167.168 494.455C166.923 494.455 166.711 494.371 166.534 494.204C166.36 494.037 166.273 493.837 166.273 493.602C166.273 493.368 166.36 493.167 166.534 493C166.711 492.833 166.923 492.75 167.168 492.75C167.413 492.75 167.622 492.833 167.796 493C167.974 493.167 168.063 493.368 168.063 493.602C168.063 493.837 167.974 494.037 167.796 494.204C167.622 494.371 167.413 494.455 167.168 494.455ZM175.884 497.651L174.754 497.97C174.683 497.782 174.578 497.599 174.44 497.422C174.305 497.24 174.12 497.091 173.886 496.974C173.652 496.857 173.352 496.798 172.986 496.798C172.485 496.798 172.068 496.914 171.734 497.145C171.404 497.372 171.239 497.661 171.239 498.013C171.239 498.325 171.352 498.572 171.58 498.753C171.807 498.934 172.162 499.085 172.645 499.206L173.859 499.504C174.591 499.682 175.136 499.953 175.495 500.319C175.853 500.681 176.033 501.148 176.033 501.72C176.033 502.189 175.898 502.608 175.628 502.977C175.362 503.347 174.989 503.638 174.509 503.851C174.03 504.064 173.472 504.17 172.837 504.17C172.002 504.17 171.311 503.989 170.765 503.627C170.218 503.265 169.871 502.736 169.726 502.04L170.919 501.741C171.033 502.182 171.248 502.512 171.564 502.732C171.883 502.952 172.3 503.062 172.815 503.062C173.401 503.062 173.866 502.938 174.211 502.69C174.559 502.437 174.733 502.136 174.733 501.784C174.733 501.5 174.634 501.262 174.435 501.07C174.236 500.875 173.93 500.729 173.518 500.634L172.155 500.314C171.406 500.136 170.855 499.861 170.504 499.488C170.156 499.112 169.982 498.641 169.982 498.077C169.982 497.615 170.111 497.207 170.37 496.852C170.633 496.496 170.99 496.218 171.441 496.015C171.896 495.813 172.411 495.712 172.986 495.712C173.795 495.712 174.431 495.889 174.893 496.244C175.358 496.599 175.688 497.068 175.884 497.651ZM181.483 495.818V496.884H177.243V495.818H181.483ZM178.479 493.858H179.736V501.656C179.736 502.011 179.788 502.278 179.891 502.455C179.997 502.629 180.132 502.746 180.295 502.807C180.462 502.864 180.638 502.892 180.823 502.892C180.961 502.892 181.075 502.885 181.164 502.871C181.252 502.853 181.323 502.839 181.377 502.828L181.632 503.957C181.547 503.989 181.428 504.021 181.275 504.053C181.123 504.089 180.929 504.107 180.695 504.107C180.34 504.107 179.992 504.03 179.651 503.877C179.313 503.725 179.033 503.492 178.809 503.18C178.589 502.867 178.479 502.473 178.479 501.997V493.858ZM183.374 504V495.818H184.589V497.054H184.674C184.823 496.649 185.093 496.321 185.484 496.069C185.874 495.816 186.315 495.69 186.805 495.69C186.897 495.69 187.012 495.692 187.151 495.696C187.289 495.699 187.394 495.705 187.465 495.712V496.99C187.422 496.979 187.325 496.963 187.172 496.942C187.023 496.917 186.865 496.905 186.698 496.905C186.3 496.905 185.945 496.988 185.633 497.155C185.324 497.319 185.079 497.546 184.898 497.837C184.72 498.125 184.631 498.453 184.631 498.822V504H183.374ZM191.363 504.192C190.844 504.192 190.374 504.094 189.951 503.899C189.529 503.7 189.193 503.414 188.945 503.041C188.696 502.665 188.572 502.21 188.572 501.678C188.572 501.209 188.664 500.829 188.849 500.538C189.033 500.243 189.28 500.012 189.589 499.845C189.898 499.678 190.239 499.554 190.612 499.472C190.988 499.387 191.366 499.32 191.746 499.27C192.244 499.206 192.647 499.158 192.956 499.126C193.268 499.091 193.495 499.032 193.637 498.95C193.783 498.869 193.856 498.727 193.856 498.524V498.482C193.856 497.956 193.712 497.548 193.424 497.256C193.14 496.965 192.709 496.82 192.13 496.82C191.53 496.82 191.059 496.951 190.718 497.214C190.377 497.477 190.138 497.757 189.999 498.055L188.806 497.629C189.019 497.132 189.303 496.745 189.658 496.468C190.017 496.187 190.408 495.992 190.83 495.882C191.256 495.768 191.675 495.712 192.087 495.712C192.35 495.712 192.652 495.744 192.993 495.808C193.337 495.868 193.669 495.994 193.989 496.186C194.312 496.377 194.58 496.667 194.793 497.054C195.006 497.441 195.113 497.96 195.113 498.609V504H193.856V502.892H193.792C193.707 503.07 193.565 503.26 193.366 503.462C193.167 503.664 192.902 503.837 192.572 503.979C192.242 504.121 191.839 504.192 191.363 504.192ZM191.555 503.062C192.052 503.062 192.471 502.965 192.812 502.77C193.156 502.574 193.415 502.322 193.589 502.013C193.767 501.704 193.856 501.379 193.856 501.038V499.888C193.803 499.952 193.685 500.01 193.504 500.064C193.327 500.113 193.121 500.158 192.886 500.197C192.656 500.232 192.43 500.264 192.21 500.293C191.993 500.317 191.817 500.339 191.683 500.357C191.356 500.399 191.05 500.468 190.766 500.564C190.486 500.657 190.259 500.797 190.085 500.985C189.914 501.17 189.829 501.422 189.829 501.741C189.829 502.178 189.99 502.509 190.314 502.732C190.64 502.952 191.054 503.062 191.555 503.062ZM197.407 504V495.818H198.622V497.054H198.707C198.856 496.649 199.126 496.321 199.517 496.069C199.907 495.816 200.348 495.69 200.838 495.69C200.93 495.69 201.046 495.692 201.184 495.696C201.323 495.699 201.427 495.705 201.498 495.712V496.99C201.456 496.979 201.358 496.963 201.205 496.942C201.056 496.917 200.898 496.905 200.731 496.905C200.334 496.905 199.978 496.988 199.666 497.155C199.357 497.319 199.112 497.546 198.931 497.837C198.753 498.125 198.665 498.453 198.665 498.822V504H197.407ZM208.784 497.651L207.655 497.97C207.584 497.782 207.479 497.599 207.34 497.422C207.205 497.24 207.021 497.091 206.786 496.974C206.552 496.857 206.252 496.798 205.886 496.798C205.385 496.798 204.968 496.914 204.634 497.145C204.304 497.372 204.139 497.661 204.139 498.013C204.139 498.325 204.253 498.572 204.48 498.753C204.707 498.934 205.062 499.085 205.545 499.206L206.76 499.504C207.491 499.682 208.036 499.953 208.395 500.319C208.754 500.681 208.933 501.148 208.933 501.72C208.933 502.189 208.798 502.608 208.528 502.977C208.262 503.347 207.889 503.638 207.41 503.851C206.93 504.064 206.373 504.17 205.737 504.17C204.903 504.17 204.212 503.989 203.665 503.627C203.118 503.265 202.772 502.736 202.626 502.04L203.819 501.741C203.933 502.182 204.148 502.512 204.464 502.732C204.784 502.952 205.201 503.062 205.716 503.062C206.302 503.062 206.767 502.938 207.111 502.69C207.459 502.437 207.633 502.136 207.633 501.784C207.633 501.5 207.534 501.262 207.335 501.07C207.136 500.875 206.831 500.729 206.419 500.634L205.055 500.314C204.306 500.136 203.756 499.861 203.404 499.488C203.056 499.112 202.882 498.641 202.882 498.077C202.882 497.615 203.012 497.207 203.271 496.852C203.534 496.496 203.89 496.218 204.341 496.015C204.796 495.813 205.311 495.712 205.886 495.712C206.696 495.712 207.331 495.889 207.793 496.244C208.258 496.599 208.589 497.068 208.784 497.651ZM214.256 504.17C213.467 504.17 212.787 503.996 212.216 503.648C211.647 503.297 211.209 502.807 210.9 502.178C210.595 501.546 210.442 500.811 210.442 499.973C210.442 499.135 210.595 498.396 210.9 497.757C211.209 497.114 211.639 496.614 212.189 496.255C212.743 495.893 213.389 495.712 214.128 495.712C214.554 495.712 214.975 495.783 215.39 495.925C215.806 496.067 216.184 496.298 216.525 496.617C216.866 496.933 217.138 497.352 217.34 497.874C217.542 498.396 217.644 499.039 217.644 499.803V500.335H211.337V499.249H216.365C216.365 498.787 216.273 498.375 216.088 498.013C215.907 497.651 215.648 497.365 215.31 497.155C214.977 496.946 214.582 496.841 214.128 496.841C213.627 496.841 213.194 496.965 212.828 497.214C212.466 497.459 212.187 497.778 211.992 498.173C211.797 498.567 211.699 498.989 211.699 499.44V500.165C211.699 500.783 211.805 501.306 212.019 501.736C212.235 502.162 212.535 502.487 212.919 502.711C213.302 502.931 213.748 503.041 214.256 503.041C214.586 503.041 214.884 502.995 215.151 502.903C215.421 502.807 215.653 502.665 215.848 502.477C216.044 502.285 216.195 502.047 216.301 501.763L217.516 502.104C217.388 502.516 217.173 502.878 216.871 503.19C216.569 503.499 216.196 503.741 215.753 503.915C215.309 504.085 214.81 504.17 214.256 504.17Z" fill="black"/>
<path d="M28.5 27L33.2735 17L21.7265 17L26.5 27L28.5 27ZM28.5 624L28.5 26L26.5 26L26.5 624L28.5 624Z" fill="#807B7B"/>
<path d="M154.1 99L133.8 29H146.2L162.8 85.6L158.3 99H154.1ZM164.7 73.3L159.1 54.2L167 29H179.4L165.7 73.3H164.7ZM205.866 99.5V87.3C206.199 87.3 206.766 87.1667 207.566 86.9C208.366 86.6333 209.199 86.2333 210.066 85.7C210.999 85.1 211.799 84.3333 212.466 83.4C213.132 82.4 213.466 81.1667 213.466 79.7V29H225.566V79.7C225.566 83.3 224.832 86.3667 223.366 88.9C221.966 91.4333 220.166 93.4667 217.966 95C215.766 96.5333 213.566 97.6667 211.366 98.4C209.232 99.1333 207.399 99.5 205.866 99.5ZM200.666 99.5C199.199 99.5 197.399 99.1333 195.266 98.4C193.132 97.6 191.032 96.4 188.966 94.8C186.966 93.2 185.266 91.1667 183.866 88.7C182.532 86.1667 181.866 83.1667 181.866 79.7V74.8H194.166V79.6C194.166 81.0667 194.399 82.3 194.866 83.3C195.399 84.2333 196.032 85 196.766 85.6C197.566 86.2 198.299 86.6333 198.966 86.9C199.699 87.1667 200.266 87.3 200.666 87.3V99.5Z" fill="#00B2FF"/>
</g>
<defs>
<filter id="filter0_i_75_219" x="-30.3696" y="105.797" width="405.273" height="313.217" filterUnits="userSpaceOnUse" color-interpolation-filters="sRGB">
<feFlood flood-opacity="0" result="BackgroundImageFix"/>
<feBlend mode="normal" in="SourceGraphic" in2="BackgroundImageFix" result="shape"/>
<feColorMatrix in="SourceAlpha" type="matrix" values="0 0 0 0 0 0 0 0 0 0 0 0 0 0 0 0 0 0 127 0" result="hardAlpha"/>
<feOffset dy="4"/>
<feGaussianBlur stdDeviation="2"/>
<feComposite in2="hardAlpha" operator="arithmetic" k2="-1" k3="1"/>
<feColorMatrix type="matrix" values="0 0 0 0 0 0 0 0 0 0 0 0 0 0 0 0 0 0 0.25 0"/>
<feBlend mode="normal" in2="shape" result="effect1_innerShadow_75_219"/>
</filter>
<filter id="filter1_d_75_219" x="60" y="199" width="239" height="48" filterUnits="userSpaceOnUse" color-interpolation-filters="sRGB">
<feFlood flood-opacity="0" result="BackgroundImageFix"/>
<feColorMatrix in="SourceAlpha" type="matrix" values="0 0 0 0 0 0 0 0 0 0 0 0 0 0 0 0 0 0 127 0" result="hardAlpha"/>
<feOffset dy="4"/>
<feGaussianBlur stdDeviation="2"/>
<feComposite in2="hardAlpha" operator="out"/>
<feColorMatrix type="matrix" values="0 0 0 0 0 0 0 0 0 0 0 0 0 0 0 0 0 0 0.25 0"/>
<feBlend mode="normal" in2="BackgroundImageFix" result="effect1_dropShadow_75_219"/>
<feBlend mode="normal" in="SourceGraphic" in2="effect1_dropShadow_75_219" result="shape"/>
</filter>
<filter id="filter2_d_75_219" x="62" y="301" width="239" height="48" filterUnits="userSpaceOnUse" color-interpolation-filters="sRGB">
<feFlood flood-opacity="0" result="BackgroundImageFix"/>
<feColorMatrix in="SourceAlpha" type="matrix" values="0 0 0 0 0 0 0 0 0 0 0 0 0 0 0 0 0 0 127 0" result="hardAlpha"/>
<feOffset dy="4"/>
<feGaussianBlur stdDeviation="2"/>
<feComposite in2="hardAlpha" operator="out"/>
<feColorMatrix type="matrix" values="0 0 0 0 0 0 0 0 0 0 0 0 0 0 0 0 0 0 0.25 0"/>
<feBlend mode="normal" in2="BackgroundImageFix" result="effect1_dropShadow_75_219"/>
<feBlend mode="normal" in="SourceGraphic" in2="effect1_dropShadow_75_219" result="shape"/>
</filter>
<filter id="filter3_d_75_219" x="87" y="425" width="186" height="42" filterUnits="userSpaceOnUse" color-interpolation-filters="sRGB">
<feFlood flood-opacity="0" result="BackgroundImageFix"/>
<feColorMatrix in="SourceAlpha" type="matrix" values="0 0 0 0 0 0 0 0 0 0 0 0 0 0 0 0 0 0 127 0" result="hardAlpha"/>
<feOffset dy="4"/>
<feGaussianBlur stdDeviation="2"/>
<feComposite in2="hardAlpha" operator="out"/>
<feColorMatrix type="matrix" values="0 0 0 0 0 0 0 0 0 0 0 0 0 0 0 0 0 0 0.25 0"/>
<feBlend mode="normal" in2="BackgroundImageFix" result="effect1_dropShadow_75_219"/>
<feBlend mode="normal" in="SourceGraphic" in2="effect1_dropShadow_75_219" result="shape"/>
</filter>
<filter id="filter4_d_75_219" x="86" y="482" width="186" height="42" filterUnits="userSpaceOnUse" color-interpolation-filters="sRGB">
<feFlood flood-opacity="0" result="BackgroundImageFix"/>
<feColorMatrix in="SourceAlpha" type="matrix" values="0 0 0 0 0 0 0 0 0 0 0 0 0 0 0 0 0 0 127 0" result="hardAlpha"/>
<feOffset dy="4"/>
<feGaussianBlur stdDeviation="2"/>
<feComposite in2="hardAlpha" operator="out"/>
<feColorMatrix type="matrix" values="0 0 0 0 0 0 0 0 0 0 0 0 0 0 0 0 0 0 0.25 0"/>
<feBlend mode="normal" in2="BackgroundImageFix" result="effect1_dropShadow_75_219"/>
<feBlend mode="normal" in="SourceGraphic" in2="effect1_dropShadow_75_219" result="shape"/>
</filter>
<clipPath id="clip0_75_219">
<rect width="360" height="640" fill="white"/>
</clipPath>
</defs>
</svg>
